<svg width="38" height="50" viewBox="0 0 38 50" fill="none" xmlns="http://www.w3.org/2000/svg">
<g clip-path="url(#clip0_31_221)">
<path d="M35.2553 38.401L29.0065 29.4132H30.8346C30.8359 29.4132 30.8375 29.4132 30.8387 29.4132C31.69 29.4132 32.3797 28.6493 32.3797 27.707C32.3797 27.2752 32.235 26.881 31.9961 26.5802L26.1274 18.1384H28.2755C28.2773 18.1384 28.2785 18.1384 28.2796 18.1384C29.1308 18.1384 29.8205 17.3745 29.8205 16.4322C29.8205 16.0004 29.6759 15.6061 29.4369 15.3054L19.2585 0.665432C18.9668 0.245926 18.5156 0 18.0375 0C17.5594 0 17.1082 0.245926 16.8164 0.665432L6.57846 15.3914C6.22035 15.9067 6.15768 16.6024 6.41697 17.1859C6.67646 17.769 7.2125 18.1387 7.7995 18.1387H9.94756L4.01907 26.6664C3.66095 27.1815 3.59829 27.8774 3.85758 28.4607C4.11707 29.044 4.65311 29.4135 5.24011 29.4135H7.06827L0.819881 38.4012C0.461767 38.9163 0.399102 39.6122 0.65839 40.1955C0.917884 40.7788 1.45392 41.1483 2.04092 41.1483H12.4991V48.2938C12.4991 49.2361 13.1889 50 14.0401 50H22.0345C22.8857 50 23.5754 49.2361 23.5754 48.2938V41.1483H34.034C34.621 41.1483 35.1573 40.7788 35.4168 40.1955C35.6761 39.612 35.6136 38.9161 35.2553 38.401ZM20.4937 46.5873H15.5812V41.148H20.4937V46.5873ZM22.0347 37.7356H14.0403H5.17189L11.4203 28.7478C11.7784 28.2327 11.8411 27.5368 11.5818 26.9535C11.3223 26.3702 10.7862 26.0008 10.1992 26.0008H8.37108L14.2996 17.473C14.6577 16.9579 14.7204 16.262 14.4611 15.6787C14.2016 15.0954 13.6655 14.726 13.0785 14.726H10.9303L18.0375 4.5031L25.1447 14.726H22.9966C22.4096 14.726 21.8734 15.0954 21.6141 15.6787C21.3548 16.262 21.4175 16.9579 21.7756 17.473L27.7043 26.0008H25.8759C25.2889 26.0008 24.7527 26.3702 24.4934 26.9535C24.2341 27.5368 24.2968 28.2327 24.6549 28.7478L30.9037 37.7356H22.0347Z" fill="#15803D"/>
<path d="M19.8029 11.9338C19.8029 10.8546 19.0109 9.97644 18.0372 9.97644C17.0637 9.97644 16.2715 10.8544 16.2715 11.9338C16.2715 13.0081 17.0635 13.8819 18.0372 13.8819C19.0109 13.8819 19.8029 13.0081 19.8029 11.9338Z" fill="#15803D"/>
<path d="M15.3653 22.9441C14.3919 22.9441 13.5996 23.822 13.5996 24.9015C13.5996 25.9757 14.3917 26.8496 15.3653 26.8496C16.3388 26.8496 17.131 25.9757 17.131 24.9015C17.1308 23.822 16.3388 22.9441 15.3653 22.9441Z" fill="#15803D"/>
<path d="M22.4728 21.7162C22.4728 20.6369 21.6808 19.7588 20.7071 19.7588C19.7337 19.7588 18.9414 20.6367 18.9414 21.7162C18.9414 22.7904 19.7334 23.6642 20.7071 23.6642C21.6808 23.6642 22.4728 22.7904 22.4728 21.7162Z" fill="#15803D"/>
<path d="M13.898 31.5883C13.4263 31.5883 12.9823 31.7922 12.648 32.1623C11.962 32.9219 11.964 34.16 12.6523 34.9223C12.9876 35.2934 13.4316 35.4974 13.9029 35.4974C14.3716 35.4974 14.8127 35.2949 15.1447 34.9273C15.479 34.5574 15.6633 34.066 15.6637 33.5443C15.6641 33.022 15.48 32.5306 15.1457 32.1605C14.8127 31.7915 14.3695 31.5883 13.898 31.5883Z" fill="#15803D"/>
<path d="M22.3798 30.4509C21.9078 30.4509 21.4638 30.6548 21.1295 31.0249C20.7948 31.3955 20.612 31.888 20.6153 32.4122C20.6182 32.93 20.8025 33.4175 21.1343 33.7849C21.469 34.1557 21.913 34.36 22.3845 34.36C22.8531 34.36 23.2942 34.1576 23.6263 33.7899C23.9605 33.4205 24.145 32.9291 24.1455 32.407C24.1459 31.8851 23.962 31.3937 23.6281 31.0235C23.2949 30.6541 22.8513 30.4509 22.3798 30.4509Z" fill="#15803D"/>
</g>
<defs>
<clipPath id="clip0_31_221">
<rect width="37" height="50" fill="white" transform="translate(0.5)"/>
</clipPath>
</defs>
</svg>
