<svg width="76" height="79" viewBox="0 0 76 79" fill="none" xmlns="http://www.w3.org/2000/svg">
<g clip-path="url(#clip0_8_719)">
<path d="M70.5819 36.8831H55.3278V55.2012H74.3955C75.0974 55.2012 75.6667 54.6153 75.6667 53.8928V42.1168C75.6667 39.2263 73.3902 36.8831 70.5819 36.8831Z" fill="#C7CFE2"/>
<path d="M55.3278 39.5H70.5821C71.9863 39.5 73.1244 40.6715 73.1244 42.1169V55.2012H55.3278V39.5Z" fill="#AFB9D2"/>
<path d="M73.0232 55.2012C72.4049 50.7643 68.7075 47.3506 64.2259 47.3506C59.7444 47.3506 56.047 50.7643 55.4287 55.2012H73.0232Z" fill="#959CB5"/>
<path d="M65.4971 21.1819H55.3276V26.4157H68.6751C69.0261 26.4157 69.3107 26.1227 69.3107 25.7615V25.1072C69.3107 22.9394 67.6034 21.1819 65.4971 21.1819Z" fill="#C7CFE2"/>
<path d="M54.0566 15.9484H8.29381C7.59186 15.9484 7.02262 16.5343 7.02262 17.2568V43.4253H4.48024C3.77755 43.4253 3.20905 44.0112 3.20905 44.7337C3.20905 45.4563 3.77755 46.0422 4.48024 46.0422H12.1074C12.8101 46.0422 13.3786 46.6281 13.3786 47.3506C13.3786 48.0731 12.8101 48.659 12.1074 48.659H7.02262V53.8928C7.02262 54.6153 7.59186 55.2012 8.29381 55.2012H55.3278V17.2568C55.3278 16.5341 54.7585 15.9484 54.0566 15.9484Z" fill="#FFDC64"/>
<path d="M31.1751 44.7337C37.4936 44.7337 42.6158 39.4615 42.6158 32.9578C42.6158 26.4542 37.4936 21.1819 31.1751 21.1819C24.8566 21.1819 19.7344 26.4542 19.7344 32.9578C19.7344 39.4615 24.8566 44.7337 31.1751 44.7337Z" fill="#FFC850"/>
<path d="M26.8143 48.659C25.4832 47.8408 23.9404 47.3506 22.2768 47.3506C20.6131 47.3506 19.0704 47.8408 17.7393 48.659H1.93785C1.23516 48.659 0.666656 49.2449 0.666656 49.9675C0.666656 50.69 1.23516 51.2759 1.93785 51.2759H7.02261V53.8928C7.02261 54.6153 7.59185 55.2012 8.29381 55.2012H55.3277V48.659H26.8143Z" fill="#FFC850"/>
<path d="M64.2259 63.0518C67.7362 63.0518 70.5819 60.1228 70.5819 56.5096C70.5819 52.8965 67.7362 49.9675 64.2259 49.9675C60.7156 49.9675 57.87 52.8965 57.87 56.5096C57.87 60.1228 60.7156 63.0518 64.2259 63.0518Z" fill="#5B5D6E"/>
<path d="M22.2768 63.0518C25.7871 63.0518 28.6327 60.1228 28.6327 56.5096C28.6327 52.8965 25.7871 49.9675 22.2768 49.9675C18.7665 49.9675 15.9208 52.8965 15.9208 56.5096C15.9208 60.1228 18.7665 63.0518 22.2768 63.0518Z" fill="#5B5D6E"/>
<path d="M70.5819 36.8831L68.0395 26.4156H55.3278V36.8831H70.5819Z" fill="#B4E6FF"/>
<path d="M22.2768 60.4349C24.3829 60.4349 26.0903 58.6775 26.0903 56.5096C26.0903 54.3418 24.3829 52.5844 22.2768 52.5844C20.1706 52.5844 18.4632 54.3418 18.4632 56.5096C18.4632 58.6775 20.1706 60.4349 22.2768 60.4349Z" fill="#C7CFE2"/>
<path d="M31.1751 42.1169C36.0895 42.1169 40.0734 38.0163 40.0734 32.9579C40.0734 27.8995 36.0895 23.7988 31.1751 23.7988C26.2607 23.7988 22.2768 27.8995 22.2768 32.9579C22.2768 38.0163 26.2607 42.1169 31.1751 42.1169Z" fill="white"/>
<path d="M34.9887 38.1916C34.6635 38.1916 34.3381 38.0638 34.09 37.8081L30.2764 33.8828C30.0381 33.6375 29.9039 33.3046 29.9039 32.9578V27.7241C29.9039 27.0016 30.4724 26.4156 31.1751 26.4156C31.8778 26.4156 32.4463 27.0016 32.4463 27.7241V32.4161L35.8873 35.958C36.3839 36.4691 36.3839 37.2971 35.8873 37.8083C35.6392 38.0638 35.314 38.1916 34.9887 38.1916Z" fill="#5B5D6E"/>
<path d="M22.2768 57.818C22.9788 57.818 23.548 57.2322 23.548 56.5096C23.548 55.787 22.9788 55.2012 22.2768 55.2012C21.5747 55.2012 21.0056 55.787 21.0056 56.5096C21.0056 57.2322 21.5747 57.818 22.2768 57.818Z" fill="#7F8499"/>
<path d="M64.2259 60.4349C66.3321 60.4349 68.0395 58.6775 68.0395 56.5096C68.0395 54.3418 66.3321 52.5844 64.2259 52.5844C62.1197 52.5844 60.4124 54.3418 60.4124 56.5096C60.4124 58.6775 62.1197 60.4349 64.2259 60.4349Z" fill="#C7CFE2"/>
<path d="M64.2259 57.818C64.928 57.818 65.4971 57.2322 65.4971 56.5096C65.4971 55.787 64.928 55.2012 64.2259 55.2012C63.5239 55.2012 62.9547 55.787 62.9547 56.5096C62.9547 57.2322 63.5239 57.818 64.2259 57.818Z" fill="#7F8499"/>
<path d="M60.4124 29.0325H68.6751L68.0395 26.4156H55.3276V36.8831H59.1412V30.3409C59.1412 29.6184 59.7104 29.0325 60.4124 29.0325Z" fill="#9BD6FF"/>
<path d="M55.3278 23.7988H65.4973C66.1992 23.7988 66.7685 24.3847 66.7685 25.1073V26.4157H55.3278V23.7988Z" fill="#AFB9D2"/>
<path d="M75.6667 42.1169H71.8531V47.3506H75.6667V42.1169Z" fill="#F1F4FB"/>
<path d="M69.3107 42.1169V44.7338C69.3107 46.1789 70.449 47.3506 71.8531 47.3506H73.1243V42.1169H69.3107Z" fill="#FFC850"/>
<path d="M31.1751 34.2662C30.4731 34.2662 29.9039 33.6803 29.9039 32.9578V27.7241C29.9039 27.0016 30.4731 26.4156 31.1751 26.4156C31.877 26.4156 32.4463 27.0016 32.4463 27.7241V32.9578C32.4463 33.6805 31.8772 34.2662 31.1751 34.2662Z" fill="#464655"/>
</g>
<defs>
<clipPath id="clip0_8_719">
<rect width="75" height="77.1973" fill="white" transform="translate(0.666656 0.901367)"/>
</clipPath>
</defs>
</svg>
