<svg width="75" height="75" viewBox="0 0 75 75" fill="none" xmlns="http://www.w3.org/2000/svg">
<rect width="75" height="75" rx="20" fill="white"/>
<g clip-path="url(#clip0_5_625)">
<path d="M67 37.5C67 20.9341 53.5659 7.5 37 7.5C20.4341 7.5 7 20.9341 7 37.5C7 54.0659 20.4341 67.5 37 67.5C53.5659 67.5 67 54.0659 67 37.5Z" fill="#25B7D3"/>
<path d="M44.3277 34.3198L40.7122 31.841C40.7122 31.841 40.2527 31.2848 38.4631 31.1517C35.6457 30.9462 30.0472 29.6523 30.0472 29.6523C26.601 30.6802 26.9033 33.7394 26.9033 33.7394L35.9238 35.4685C35.9238 35.4685 40.0834 35.1421 41.1113 35.795C43.6264 37.367 44.8718 34.7793 44.8718 34.7793L44.3277 34.3198Z" fill="#FBBF96"/>
<path d="M42.4535 33.0259L44.8598 34.5737C44.8598 34.5737 44.3156 35.0816 43.8561 35.0211C43.3483 34.9486 42.2721 33.7635 42.4535 33.0259Z" fill="#FDD6B2"/>
<path d="M39.9262 32.5302C39.8537 32.5181 39.8053 32.4335 39.8174 32.3609L39.9746 31.6596C39.9988 31.587 40.0713 31.5386 40.1439 31.5507C40.2164 31.5628 40.2648 31.6475 40.2527 31.72L40.0955 32.4214C40.0834 32.506 39.9988 32.5544 39.9262 32.5302Z" fill="#FDD6B2"/>
<path d="M39.4788 32.0707C39.4063 32.0465 39.3579 31.974 39.37 31.9014L39.4426 31.5266C39.4547 31.454 39.5393 31.4057 39.6119 31.4177C39.6844 31.4419 39.7328 31.5145 39.7207 31.587L39.6481 31.9619C39.636 32.0344 39.5514 32.0828 39.4788 32.0707Z" fill="#FDD6B2"/>
<path d="M47.6354 20.1019L31.3521 49.2896L43.9818 56.3355L60.2651 27.1478L47.6354 20.1019Z" fill="#B9EFBD"/>
<path d="M32.1995 49.1203L47.9311 20.922L59.4063 27.3307L43.6747 55.529L32.1995 49.1203ZM43.5175 55.1058L58.971 27.4033L48.0883 21.3331L32.6348 49.0357L43.5175 55.1058Z" fill="#71AD71"/>
<path d="M43.0339 43.2074C45.7787 44.743 49.2612 43.7515 50.7969 41.0066C52.3325 38.2497 51.341 34.7793 48.5961 33.2436C45.8392 31.708 42.3688 32.6995 40.8331 35.4444C39.2854 38.1892 40.2769 41.6717 43.0339 43.2074Z" fill="#71AD71"/>
<path d="M41.7158 35.7709L42.5381 36.2304C42.7799 35.916 43.0217 35.6862 43.2757 35.5532C43.5296 35.4202 43.844 35.3477 44.2188 35.3598C44.5937 35.3719 45.0048 35.4807 45.4522 35.6862L45.2225 36.448C44.763 36.2546 44.3881 36.1699 44.0979 36.182C43.6989 36.2062 43.4087 36.3513 43.2273 36.6052L45.8271 38.0563C46.0447 37.8144 46.3349 37.5968 46.6977 37.4154C46.9637 37.2824 47.2539 37.2219 47.5804 37.2461C47.9069 37.2703 48.2334 37.3791 48.5598 37.5605C49.1403 37.887 49.5151 38.3223 49.6844 38.8664C49.7932 39.2292 49.7569 39.6645 49.5635 40.1361L49.9504 40.3537L49.7207 40.7528L49.3337 40.5351C49.0677 40.8979 48.7533 41.1397 48.3906 41.2364C47.9311 41.3694 47.4111 41.3211 46.8549 41.0913L47.1209 40.3174C47.4716 40.4625 47.7618 40.5109 48.0036 40.4746C48.2455 40.4384 48.451 40.3295 48.6324 40.1361L46.2745 38.818C45.9843 39.1083 45.7787 39.2896 45.6578 39.3622C45.428 39.5073 45.1983 39.604 44.9565 39.6524C44.7267 39.6887 44.4728 39.6887 44.2188 39.6403C43.9528 39.5919 43.6989 39.4952 43.445 39.3501C42.8766 39.0357 42.4776 38.6125 42.2721 38.1046C42.0665 37.5968 42.0786 37.0889 42.3204 36.6052L41.4982 36.1457L41.7158 35.7709ZM48.8742 39.7733C48.971 39.4831 48.9589 39.205 48.838 38.939C48.717 38.6729 48.5115 38.4553 48.2334 38.2981C47.9552 38.1409 47.6892 38.0804 47.4232 38.1046C47.1572 38.1288 46.8912 38.2618 46.601 38.5158L48.8742 39.7733ZM42.9976 37.0164C42.8887 37.2945 42.9008 37.5968 43.0459 37.8991C43.191 38.2014 43.4329 38.4553 43.7835 38.6488C44.0858 38.818 44.3519 38.8906 44.6058 38.8664C44.8476 38.8422 45.1499 38.685 45.5006 38.4069L42.9976 37.0164Z" fill="#B9EFBD"/>
<path d="M29.4909 51.2726C28.4389 50.6197 25.6094 47.766 26.2623 46.714C26.9153 45.662 28.2938 45.3476 29.3458 45.9885L37.4594 50.9462C38.5114 51.5991 39.0314 52.6027 38.3784 53.6547C37.7255 54.7067 36.8911 54.7188 35.4764 54.1021L29.4909 51.2726Z" fill="#FBBF96"/>
<path d="M39.0435 37.2702L37.0242 35.5653L37.4595 32.1675L26.7219 28.4915L16.5042 39.3863C16.5042 39.3863 19.2491 43.7031 22.006 46.2545C24.763 48.8059 31.3652 52.3126 31.3652 52.3126L34.0979 49.5556L37.8706 45.0453L39.0435 37.2702Z" fill="#FBBF96"/>
<path d="M37.0967 40.9099C36.2019 40.269 33.2998 38.4189 33.9407 37.5241L33.3482 34.5737C33.9891 33.6789 40.3373 38.0683 40.8452 38.431L52.3567 46.2908C53.6505 47.2218 53.8561 48.4673 53.2152 49.3742C52.5743 50.269 51.1475 50.6076 50.2527 49.9667L37.0967 40.9099Z" fill="#FBBF96"/>
<path d="M50.2769 48.9148L51.0871 49.4831C51.6554 49.8942 52.4776 49.7249 52.913 49.1083C53.3483 48.4916 53.2394 47.6693 52.6711 47.2703L51.873 46.702C51.873 46.702 51.4498 46.8712 50.9299 47.6209C50.289 48.5399 50.3495 48.6246 50.2769 48.9148Z" fill="#FDD6B2"/>
<path d="M44.1342 44.7431C44.0738 44.6947 44.0496 44.61 44.0979 44.5375L45.5611 42.4819C45.6094 42.4214 45.6941 42.3972 45.7666 42.4456C45.8271 42.494 45.8513 42.5786 45.8029 42.6512L44.3398 44.7068C44.2914 44.7793 44.1947 44.7914 44.1342 44.7431Z" fill="#FDD6B2"/>
<path d="M43.9287 43.7999C43.8682 43.7636 43.8561 43.6789 43.9045 43.6185L44.63 42.6028C44.6663 42.5423 44.7509 42.5302 44.8114 42.5665C44.8718 42.6149 44.8839 42.6874 44.8356 42.7479L44.11 43.7636C44.0738 43.824 43.9891 43.8361 43.9287 43.7999Z" fill="#FDD6B2"/>
<path d="M31.3531 52.3247L42.1511 58.3827C42.8646 58.7576 43.9528 58.6246 44.4607 57.8023C44.9685 56.9801 44.6542 55.8797 43.7715 55.3356L31.5345 47.9353C30.6517 47.3912 29.5272 47.6088 29.0193 48.4311C28.5115 49.2533 28.8138 50.6802 29.7932 51.1034L31.3531 52.3247Z" fill="#FBBF96"/>
<path d="M32.5864 48.5278L38.4631 52.1674C39.1402 52.5665 44.9202 56.1094 44.4123 55.795L39.2128 52.2884L30.8694 47.3307C31.0024 47.5121 32.393 48.3948 32.5864 48.5278Z" fill="#EDAC80"/>
<path d="M41.8246 57.6088L42.5623 58.0562C43.0822 58.3706 43.7835 58.1771 44.1221 57.6209C44.4607 57.0647 44.3277 56.3513 43.8077 56.0369L43.0822 55.5895C43.0822 55.5895 42.7315 55.7709 42.3204 56.4359C41.8005 57.2823 41.8609 57.3428 41.8246 57.6088Z" fill="#FDD6B2"/>
<path d="M36.5163 54.61C36.4559 54.5737 36.4438 54.5012 36.4801 54.4407L37.653 52.5907C37.6893 52.5302 37.7739 52.5181 37.8223 52.5544C37.8827 52.5907 37.8948 52.6753 37.8585 52.7237L36.6856 54.5737C36.6493 54.6221 36.5768 54.6463 36.5163 54.61Z" fill="#FDD6B2"/>
<path d="M36.2987 53.7877C36.2503 53.7515 36.2261 53.691 36.2624 53.6306L36.8428 52.7237C36.8791 52.6753 36.9395 52.6511 37 52.6874C37.0484 52.7237 37.0726 52.7841 37.0363 52.8446L36.4559 53.7636C36.4196 53.8119 36.347 53.824 36.2987 53.7877Z" fill="#FDD6B2"/>
<path d="M35.029 44.9365C33.844 44.3561 33.5417 42.5907 34.2068 41.5991C34.8598 40.6076 36.2624 40.3899 37.3265 41.1034L52.0544 50.789C53.1185 51.5024 53.445 52.8688 52.7799 53.8603C52.127 54.8398 50.7727 54.9607 49.9142 54.4649L34.9686 44.8881" fill="#FBBF96"/>
<path d="M36.6856 40.8374L45.5127 46.6899C46.3229 47.2219 51.3289 50.2932 51.3289 50.2932L36.7582 40.6802L36.6856 40.8374Z" fill="#EDAC80"/>
<path d="M49.5393 53.4976L50.422 54.078C51.0508 54.4891 51.9214 54.2835 52.3688 53.6185C52.8162 52.9534 52.6711 52.0707 52.0544 51.6475L51.1717 51.0671C51.1717 51.0671 50.7243 51.2726 50.1923 52.0828C49.5272 53.0864 49.5998 53.1711 49.5393 53.4976Z" fill="#FDD6B2"/>
<path d="M43.1427 49.5435C43.0701 49.4951 43.058 49.3984 43.1064 49.3258L44.6421 47.1009C44.6905 47.0284 44.7872 47.0163 44.8597 47.0647C44.9323 47.113 44.9444 47.2098 44.896 47.2823L43.3603 49.5072C43.312 49.5798 43.2152 49.604 43.1427 49.5435Z" fill="#FDD6B2"/>
<path d="M42.9129 48.5399C42.8525 48.4915 42.8404 48.4069 42.8767 48.3464L43.6385 47.2461C43.6868 47.1856 43.7715 47.1735 43.8319 47.2098C43.8924 47.2582 43.9045 47.3428 43.8682 47.4033L43.1064 48.5036C43.058 48.5641 42.9734 48.5762 42.9129 48.5399Z" fill="#FDD6B2"/>
<path d="M32.7194 48.0562C31.607 47.4879 31.341 45.795 31.9818 44.864C32.6227 43.9329 33.9528 43.7394 34.9564 44.4407L48.8379 53.8845C49.8416 54.5738 50.1318 55.8918 49.4909 56.8229C48.85 57.7539 47.5683 57.8507 46.7461 57.3549L32.659 48.02" fill="#FBBF96"/>
<path d="M36.0205 45.2268L42.6227 49.87C43.3966 50.3779 48.6687 53.7394 48.0882 53.3525L34.0737 43.7274C34.2309 43.9329 35.8029 45.0575 36.0205 45.2268Z" fill="#EDAC80"/>
<path d="M46.4075 56.4359L47.2419 57.0042C47.8344 57.4153 48.6566 57.2219 49.104 56.5931C49.5393 55.9643 49.4184 55.1179 48.8259 54.7188L47.9916 54.1505C47.9916 54.1505 47.5684 54.3319 47.0484 55.0937C46.4075 56.0489 46.468 56.1336 46.4075 56.4359Z" fill="#FDD6B2"/>
<path d="M40.3736 52.5786C40.3011 52.5302 40.289 52.4335 40.3374 52.373L41.8368 50.2811C41.8851 50.2086 41.9819 50.1965 42.0423 50.2448C42.1149 50.2932 42.127 50.3899 42.0786 50.4504L40.5792 52.5423C40.5308 52.6149 40.4462 52.6269 40.3736 52.5786Z" fill="#FDD6B2"/>
<path d="M40.1681 51.6112C40.1076 51.5749 40.0956 51.4903 40.1439 51.4298L40.8815 50.3899C40.9178 50.3295 41.0024 50.3174 41.0629 50.3537C41.1234 50.402 41.1355 50.4746 41.0992 50.535L40.3616 51.5749C40.3132 51.6475 40.2286 51.6596 40.1681 51.6112Z" fill="#FDD6B2"/>
<path d="M19.2128 42.7479L9.33376 35.0574C8.41477 34.344 8.55988 32.627 9.64815 31.2243L16.5043 22.4214C17.5925 21.0187 19.2249 20.4625 20.1439 21.1759L30.023 28.8664C30.9299 29.5919 20.1318 43.4613 19.2128 42.7479Z" fill="#EBF3F6"/>
<path d="M29.0435 27.367L15.8392 16.2545C11.1354 20.9341 7.99154 27.1614 7.20557 34.1143L17.2298 42.5423C18.2334 43.3162 30.0472 28.1409 29.0435 27.367Z" fill="#444545"/>
</g>
<defs>
<clipPath id="clip0_5_625">
<rect width="60" height="60" fill="white" transform="translate(7 7.5)"/>
</clipPath>
</defs>
</svg>
