<svg width="76" height="75" viewBox="0 0 76 75" fill="none" xmlns="http://www.w3.org/2000/svg">
<rect x="0.333313" width="75" height="75" rx="20" fill="white"/>
<g clip-path="url(#clip0_5_616)">
<path d="M29.7686 55.1681H14.7844L20.8062 44.7383L21.4652 47.1896C21.7925 48.4071 22.8937 49.2096 24.0972 49.2096C24.3316 49.2096 24.5699 49.1792 24.8069 49.1153C26.2617 48.7245 27.1238 47.2282 26.7328 45.7736L24.3677 36.9754C24.3674 36.9747 24.3673 36.9738 24.3671 36.9729C24.3669 36.9725 24.3667 36.9723 24.3667 36.9718C24.366 36.9698 24.3653 36.9678 24.3647 36.9658C24.3575 36.9395 24.3476 36.9147 24.3397 36.8887C24.3222 36.8307 24.3053 36.7724 24.284 36.7163C24.2827 36.7131 24.2817 36.7094 24.2806 36.706C24.275 36.6909 24.2674 36.6771 24.2614 36.6622C24.2539 36.6438 24.2453 36.6263 24.2376 36.6084C24.2181 36.5626 24.1994 36.5162 24.1778 36.4719C24.1751 36.4669 24.1733 36.461 24.1706 36.4557C24.153 36.4207 24.1319 36.3877 24.1129 36.3533C24.1051 36.3394 24.0973 36.3256 24.0895 36.3117C24.0808 36.2959 24.0719 36.2803 24.0629 36.2648C24.0582 36.2557 24.0533 36.247 24.0481 36.2385C24.0445 36.2328 24.0418 36.2266 24.0381 36.221C24.0173 36.1877 23.993 36.157 23.9706 36.125C23.9459 36.0895 23.9221 36.0531 23.8959 36.0186C23.8823 36.001 23.8675 35.9844 23.8531 35.9675C23.8407 35.953 23.8287 35.9382 23.8164 35.9237C23.8146 35.9217 23.8128 35.9195 23.8111 35.9174C23.7821 35.883 23.7535 35.8478 23.723 35.8149C23.7228 35.8146 23.7224 35.8144 23.7223 35.814C23.6954 35.7854 23.6663 35.759 23.6383 35.7319C23.6354 35.7289 23.6324 35.726 23.6294 35.7232C23.5968 35.6918 23.5652 35.6592 23.5312 35.6295C23.5308 35.6292 23.5305 35.629 23.5301 35.6286C23.5068 35.6085 23.4821 35.5897 23.4579 35.5708C23.4438 35.5597 23.4299 35.5481 23.4158 35.537C23.3847 35.5125 23.3547 35.4866 23.3224 35.4635C23.2564 35.4163 23.1878 35.3724 23.1179 35.3312C23.1106 35.327 23.1043 35.3219 23.097 35.3177C23.0967 35.3175 23.0964 35.3175 23.0963 35.3171C23.0303 35.2793 22.9621 35.2456 22.8932 35.2133C22.8816 35.2077 22.8705 35.201 22.8587 35.1955C22.8577 35.1949 22.857 35.1948 22.8563 35.1944C22.8192 35.1776 22.7805 35.1642 22.7425 35.149C22.735 35.146 22.7276 35.1431 22.7201 35.1403C22.6838 35.1259 22.6479 35.1101 22.6107 35.0975C22.61 35.0973 22.6093 35.0969 22.6085 35.0968C22.5629 35.0813 22.5161 35.0695 22.4697 35.0565C22.4658 35.0552 22.4619 35.0543 22.4581 35.0532C22.4466 35.0499 22.435 35.0469 22.4238 35.0436C22.4 35.0367 22.3765 35.0292 22.3523 35.0238C22.3055 35.0127 22.2579 35.0054 22.2106 34.9969C22.1822 34.9918 22.1537 34.9867 22.1253 34.982C22.1138 34.98 22.1022 34.9774 22.0907 34.976C22.0901 34.976 22.0898 34.9758 22.0898 34.9758C22.0437 34.9698 21.9976 34.9672 21.9517 34.9636C21.9086 34.9602 21.866 34.9554 21.8226 34.954C21.777 34.9526 21.731 34.9547 21.685 34.9556C21.665 34.956 21.6448 34.9554 21.6248 34.9562C21.6066 34.9569 21.5889 34.9556 21.571 34.9568C21.566 34.9574 21.5608 34.9581 21.5558 34.9584C21.5103 34.9615 21.4647 34.9683 21.4192 34.9736C21.4113 34.9746 21.4034 34.9753 21.3954 34.9762C21.3631 34.9802 21.3311 34.9819 21.2988 34.9871C21.2962 34.9875 21.2937 34.9882 21.2912 34.9888C21.2777 34.9911 21.2642 34.9947 21.2506 34.9974C21.192 35.008 21.1339 35.0208 21.0761 35.0351C21.0596 35.0385 21.0428 35.0414 21.0264 35.0458L21.0257 35.0461H21.0254L21.025 35.0463L12.2194 37.4094C10.7646 37.7997 9.90182 39.2955 10.2922 40.7503C10.6191 41.9683 11.7207 42.7714 12.9246 42.7714C13.1586 42.7714 13.3966 42.7411 13.6331 42.6774L16.077 42.0214L7.69881 56.5317C7.21154 57.3753 7.21154 58.415 7.69881 59.259C8.18607 60.1026 9.08631 60.6226 10.0606 60.6226H29.7686C31.2748 60.6226 32.4959 59.4015 32.4959 57.8953C32.4959 56.3891 31.2749 55.1681 29.7686 55.1681Z" fill="#64C37D"/>
<path d="M57.1139 39.4639C56.3606 38.1594 54.6928 37.7128 53.3883 38.4656C52.0838 39.2189 51.6369 40.887 52.3901 42.1913L59.8822 55.1681L47.8391 55.1678L49.6324 53.3716C50.6968 52.3058 50.6953 50.5789 49.6291 49.5148C48.5633 48.4506 46.8364 48.4519 45.7722 49.5178L39.3324 55.968C39.3206 55.9799 39.3106 55.993 39.299 56.0052C39.2489 56.0573 39.1994 56.1104 39.1533 56.1664C39.1508 56.1694 39.1481 56.1721 39.1457 56.1751C39.1201 56.2064 39.0985 56.2397 39.0746 56.2717C39.072 56.275 39.0697 56.2784 39.0671 56.2819C39.0427 56.3148 39.0171 56.3469 38.9946 56.3805C38.9912 56.3858 38.9869 56.3907 38.9834 56.3958C38.9607 56.4301 38.9419 56.4663 38.9212 56.5014C38.9205 56.5024 38.9198 56.5036 38.9192 56.5046C38.9034 56.531 38.8876 56.5574 38.8721 56.5841C38.8672 56.5928 38.8613 56.6013 38.8569 56.6101C38.8536 56.6163 38.8494 56.6221 38.8461 56.6285C38.8286 56.6618 38.815 56.6961 38.7992 56.7296C38.7978 56.7323 38.7965 56.7353 38.7953 56.7379C38.7848 56.7602 38.7748 56.7824 38.7644 56.8045C38.7569 56.8204 38.7489 56.8358 38.7424 56.852C38.7398 56.8583 38.7364 56.8643 38.7338 56.8707C38.72 56.9047 38.71 56.9399 38.6976 56.9742C38.697 56.9756 38.6967 56.9771 38.6962 56.9782C38.6813 57.02 38.6653 57.0611 38.6526 57.1035C38.6507 57.1091 38.6484 57.1146 38.6467 57.1204C38.6356 57.1573 38.6287 57.1951 38.6194 57.2324C38.6085 57.2759 38.5964 57.319 38.5876 57.3627C38.5866 57.367 38.5852 57.3714 38.5843 57.3759C38.5783 57.4077 38.5754 57.4399 38.5705 57.4719C38.5682 57.485 38.5668 57.498 38.5648 57.5114C38.5623 57.5295 38.5599 57.5474 38.5572 57.5652C38.5539 57.5854 38.5505 57.6054 38.5485 57.6258C38.5482 57.6291 38.5475 57.6323 38.5471 57.6354C38.5442 57.665 38.5448 57.6948 38.5429 57.7245C38.5396 57.7752 38.5362 57.8261 38.5359 57.877C38.5359 57.883 38.535 57.8889 38.535 57.8948C38.535 57.8951 38.535 57.8954 38.535 57.8954C38.535 57.8958 38.535 57.8964 38.535 57.8968C38.535 57.9206 38.5376 57.9444 38.5383 57.9683C38.5402 58.0318 38.5416 58.0952 38.5476 58.1583C38.548 58.1609 38.5483 58.163 38.5487 58.1655C38.5503 58.1821 38.5532 58.1981 38.5558 58.2144C38.5584 58.2352 38.5618 58.2557 38.5647 58.2764C38.5714 58.3236 38.5763 58.371 38.5852 58.4179C38.5859 58.4217 38.5875 58.4255 38.5882 58.4293C38.5967 58.4725 38.6087 58.5141 38.6192 58.5565C38.6291 58.5954 38.6364 58.6349 38.6479 58.6736C38.6493 58.6785 38.6518 58.6834 38.653 58.6884C38.6657 58.73 38.6813 58.7702 38.6959 58.8111C38.7091 58.8486 38.7203 58.8864 38.7353 58.9233C38.7377 58.9289 38.7408 58.9345 38.7432 58.9402C38.759 58.978 38.7774 59.0142 38.7949 59.051C38.8127 59.089 38.8283 59.1278 38.848 59.165C38.851 59.1707 38.8546 59.1762 38.8579 59.1818C38.8592 59.1844 38.861 59.1867 38.8621 59.1891C38.8796 59.2211 38.8994 59.2523 38.9183 59.284C38.9407 59.3218 38.961 59.3604 38.9854 59.3973C38.9885 59.4019 38.9921 59.406 38.9953 59.4105C38.9976 59.4142 39.0005 59.4177 39.0029 59.4211C39.0253 59.4541 39.0503 59.4858 39.0744 59.5182C39.0993 59.5515 39.1216 59.5859 39.1482 59.6181C39.1501 59.6203 39.1522 59.6223 39.1538 59.6244L39.1541 59.6248C39.2077 59.6897 39.2646 59.7527 39.3249 59.8137C39.3283 59.8172 39.3311 59.8208 39.3345 59.8245L45.7851 66.2695C46.3176 66.8017 47.0153 67.0676 47.7127 67.0676C48.411 67.0676 49.1095 66.801 49.642 66.2679C50.7065 65.2024 50.7059 63.4757 49.6403 62.411L47.8503 60.6225L64.6058 60.6226C65.58 60.6226 66.4803 60.1027 66.9676 59.259C67.4548 58.4152 67.4548 57.3756 66.9676 56.5317L57.1139 39.4639Z" fill="#368B4C"/>
<path d="M48.3015 33.5101C48.3022 33.5103 48.3028 33.5104 48.3035 33.5107C48.3057 33.5113 48.3077 33.5116 48.3097 33.5121C48.3427 33.5208 48.3757 33.5277 48.4088 33.5352C48.4341 33.5408 48.4592 33.5474 48.4846 33.5524C48.5018 33.5557 48.5189 33.5577 48.536 33.5607C48.5768 33.5679 48.6174 33.5755 48.6583 33.5807C48.6863 33.5844 48.7143 33.586 48.7421 33.589C48.7503 33.5897 48.7585 33.5904 48.7666 33.5913C48.7735 33.5919 48.7804 33.5926 48.7871 33.5933C48.8029 33.5949 48.8187 33.5969 48.8343 33.5979C48.8929 33.6017 48.9516 33.6035 49.01 33.6035C49.0155 33.6035 49.0208 33.6029 49.0262 33.6028C49.0885 33.6024 49.1505 33.5997 49.2121 33.5949C49.2339 33.5933 49.2554 33.5909 49.2771 33.5886C49.3073 33.5857 49.3368 33.5815 49.3668 33.5775C49.3845 33.5751 49.4023 33.5735 49.4199 33.5709C49.4318 33.569 49.4437 33.5683 49.4554 33.5663C49.4649 33.5647 49.4739 33.5621 49.4834 33.5605C49.493 33.5588 49.5023 33.5563 49.5118 33.5545C49.5549 33.5463 49.5984 33.5377 49.6409 33.5274C49.6512 33.5251 49.6618 33.5236 49.6722 33.5209C49.6736 33.5205 49.6749 33.5202 49.6762 33.5198C49.6782 33.5192 49.6801 33.5185 49.6818 33.5179C49.7497 33.5007 49.8167 33.481 49.8827 33.4586C49.8829 33.4586 49.883 33.4584 49.883 33.4584C49.8847 33.4578 49.8861 33.4574 49.8874 33.457C49.9072 33.4501 49.9269 33.4419 49.9464 33.4341C49.988 33.4186 50.0299 33.4036 50.071 33.3861C50.0766 33.3835 50.0826 33.3819 50.0881 33.3795C50.1009 33.3739 50.1131 33.3672 50.1257 33.3614C50.1499 33.3505 50.1738 33.3383 50.1976 33.3268C50.2167 33.3177 50.2361 33.309 50.255 33.2994C50.265 33.2941 50.2755 33.2898 50.2857 33.2845C50.297 33.2785 50.3075 33.2714 50.3187 33.2653C50.3362 33.2557 50.3537 33.2472 50.3709 33.2375C50.3845 33.2297 50.3969 33.2203 50.4102 33.2122C50.4109 33.2118 50.4114 33.2115 50.412 33.2111C50.4328 33.1984 50.4546 33.1875 50.4751 33.1742C50.5028 33.1564 50.5296 33.1363 50.5568 33.1173C50.5631 33.1129 50.5696 33.1084 50.576 33.104C50.5934 33.0917 50.611 33.08 50.6284 33.0675C50.637 33.0609 50.6465 33.0555 50.6551 33.049C50.6921 33.0206 50.7274 32.9899 50.7635 32.9599C50.7702 32.9543 50.7773 32.9486 50.784 32.943C50.7971 32.9315 50.8109 32.9216 50.8239 32.91C50.8242 32.9097 50.8245 32.9096 50.8246 32.9094C50.8605 32.8774 50.8943 32.8428 50.9285 32.8091C50.9466 32.7913 50.9655 32.7745 50.9832 32.7562C50.9879 32.7512 50.9923 32.7454 50.997 32.7406C51.0046 32.7324 51.0119 32.7238 51.0194 32.7152C51.0305 32.7021 51.0419 32.6892 51.0533 32.6765C51.0724 32.6549 51.0919 32.6338 51.1103 32.6116C51.1166 32.6041 51.1232 32.5977 51.1294 32.5899C51.1398 32.5772 51.1486 32.5633 51.1587 32.5504C51.1776 32.5264 51.1953 32.5013 51.2135 32.4768C51.2277 32.4572 51.2429 32.4386 51.2567 32.4187C51.2586 32.416 51.2606 32.4138 51.2623 32.4111C51.2772 32.3893 51.2901 32.3656 51.3045 32.3431C51.32 32.3188 51.3355 32.2943 51.3503 32.2693C51.3578 32.2568 51.3662 32.2448 51.3734 32.232C51.376 32.2278 51.3785 32.2242 51.3809 32.2201C51.3993 32.1879 51.4149 32.1539 51.4317 32.1208C51.4436 32.0974 51.4566 32.0741 51.4679 32.0503C51.494 31.9953 51.5176 31.9388 51.5402 31.8818C51.5445 31.8706 51.5493 31.8594 51.5538 31.8484C51.5577 31.8389 51.562 31.8296 51.5654 31.8198C51.592 31.7466 51.6161 31.6721 51.637 31.5958C51.6373 31.5944 51.6379 31.5929 51.6383 31.5918C51.6393 31.5882 51.6406 31.5849 51.6416 31.5813C51.6416 31.5813 51.6416 31.5811 51.6418 31.5809V31.5807C51.642 31.5805 51.642 31.5801 51.6421 31.5798C51.6424 31.5792 51.6424 31.5788 51.6424 31.5785L53.9982 22.7721C54.3875 21.317 53.5235 19.8218 52.0684 19.4326C50.6138 19.0435 49.1184 19.9075 48.7291 21.3624L48.0751 23.8068L39.6985 9.29669C39.2115 8.4527 38.311 7.93286 37.3367 7.93286C36.3625 7.93286 35.4619 8.45271 34.9749 9.29645L25.1211 26.3636C24.3678 27.6681 24.8148 29.3362 26.1193 30.0893C27.4232 30.8422 29.0915 30.3955 29.8448 29.0909L37.3369 16.1144L43.3583 26.5442L40.9061 25.8893C39.4525 25.5007 37.9562 26.365 37.5676 27.8204C37.1789 29.2756 38.0436 30.7704 39.4988 31.159L48.3015 33.5101Z" fill="#A4E276"/>
</g>
<defs>
<clipPath id="clip0_5_616">
<rect width="60" height="60" fill="white" transform="translate(7.33331 7.5)"/>
</clipPath>
</defs>
</svg>
