<svg width="50" height="50" viewBox="0 0 50 50" fill="none" xmlns="http://www.w3.org/2000/svg">
<path d="M30.6778 45.5972C30.6778 48.3708 28.4292 49.3639 25.6556 49.3639C22.882 49.3639 20.6334 48.3708 20.6334 45.5972L21.8889 34.2972C21.8889 31.525 22.882 31.7861 25.6556 31.7861C28.4292 31.7861 29.4223 31.525 29.4223 34.2972L30.6778 45.5972Z" fill="#662113"/>
<path d="M42.4861 38.4375C33.7445 30.9487 30.2042 20.2264 25.6556 20.2264C21.107 20.2264 17.5667 30.9501 8.82501 38.4375C5.1514 41.5848 6.9014 43.4056 11.9375 43.0403C16.4264 42.7167 20.625 41.6987 25.6556 41.6987C30.6861 41.6987 34.8861 42.7167 39.3722 43.0403C44.4097 43.4056 46.1583 41.5834 42.4861 38.4375Z" fill="#5C913B"/>
<path d="M39.6472 35.4695C32.9292 29.3098 29.1542 20.4875 25.6556 20.4875C22.1597 20.4875 18.3833 29.3098 11.6653 35.4695C6.32641 40.3639 18.6611 41.4625 25.6556 35.4695C32.6472 41.4639 44.9847 40.3639 39.6472 35.4695Z" fill="#3E721D"/>
<path d="M39.6472 30.4791C32.9292 24.7249 29.1542 16.4833 25.6556 16.4833C22.1597 16.4833 18.3833 24.7249 11.6653 30.4791C6.32641 35.0513 18.6611 36.0777 25.6556 30.4791C32.6472 36.0791 44.9847 35.0513 39.6472 30.4791Z" fill="#5C913B"/>
<path d="M36.5778 26.3931C31.3347 21.9001 28.3875 15.4653 25.6556 15.4653C22.9264 15.4653 19.9778 21.8987 14.7333 26.3931C10.5667 29.9626 20.1944 30.7639 25.6556 26.3931C31.1139 30.7626 40.7458 29.9626 36.5778 26.3931Z" fill="#3E721D"/>
<path d="M36.5778 22.6542C31.3347 18.1611 28.3875 11.7278 25.6556 11.7278C22.9264 11.7278 19.9778 18.1611 14.7333 22.6542C10.5667 26.225 20.1944 27.025 25.6556 22.6542C31.1139 27.025 40.7458 26.225 36.5778 22.6542Z" fill="#5C913B"/>
<path d="M34.4695 19.3333C30.2375 15.7083 27.8584 10.5153 25.6542 10.5153C23.4514 10.5153 21.0722 15.7083 16.8389 19.3333C13.475 22.2153 21.2472 22.8611 25.6542 19.3333C30.0625 22.8611 37.8347 22.2153 34.4695 19.3333Z" fill="#3E721D"/>
<path d="M34.4695 16.5195C30.2375 12.8945 27.8584 7.70142 25.6542 7.70142C23.4514 7.70142 21.0722 12.8945 16.8389 16.5195C13.475 19.4014 21.2472 20.0472 25.6542 16.5195C30.0625 20.0472 37.8347 19.4014 34.4695 16.5195Z" fill="#5C913B"/>
<path d="M32.3625 12.3763C29.143 9.61802 27.3333 5.66663 25.6555 5.66663C23.9792 5.66663 22.168 9.61802 18.9472 12.3763C16.3875 14.5694 22.3014 15.0611 25.6555 12.3763C29.0083 15.0611 34.9236 14.5694 32.3625 12.3763Z" fill="#3E721D"/>
<path d="M32.3625 10.8777C29.143 8.11801 27.3333 4.16663 25.6555 4.16663C23.9792 4.16663 22.168 8.11801 18.9472 10.8777C16.3875 13.0708 22.3014 13.5625 25.6555 10.8777C29.0083 13.5611 34.9236 13.0694 32.3625 10.8777Z" fill="#5C913B"/>
<path d="M22.9166 18.8084C24.0672 18.8084 25 17.8757 25 16.7251C25 15.5745 24.0672 14.6417 22.9166 14.6417C21.7661 14.6417 20.8333 15.5745 20.8333 16.7251C20.8333 17.8757 21.7661 18.8084 22.9166 18.8084Z" fill="#FFCC4D"/>
<path d="M27.7778 37.5C29.3119 37.5 30.5556 36.2564 30.5556 34.7222C30.5556 33.1881 29.3119 31.9445 27.7778 31.9445C26.2437 31.9445 25 33.1881 25 34.7222C25 36.2564 26.2437 37.5 27.7778 37.5Z" fill="#FFCC4D"/>
<path d="M31.25 25C33.1676 25 34.7222 23.4454 34.7222 21.5278C34.7222 19.6101 33.1676 18.0555 31.25 18.0555C29.3323 18.0555 27.7778 19.6101 27.7778 21.5278C27.7778 23.4454 29.3323 25 31.25 25Z" fill="#DD2E44"/>
<path d="M13.8889 38.8889C15.423 38.8889 16.6666 37.6453 16.6666 36.1112C16.6666 34.577 15.423 33.3334 13.8889 33.3334C12.3547 33.3334 11.1111 34.577 11.1111 36.1112C11.1111 37.6453 12.3547 38.8889 13.8889 38.8889Z" fill="#DD2E44"/>
<path d="M19.4445 29.1666C20.9786 29.1666 22.2222 27.923 22.2222 26.3889C22.2222 24.8547 20.9786 23.6111 19.4445 23.6111C17.9103 23.6111 16.6667 24.8547 16.6667 26.3889C16.6667 27.923 17.9103 29.1666 19.4445 29.1666Z" fill="#A6D388"/>
<path d="M36.1111 34.7222C37.6452 34.7222 38.8889 33.4785 38.8889 31.9444C38.8889 30.4103 37.6452 29.1666 36.1111 29.1666C34.577 29.1666 33.3333 30.4103 33.3333 31.9444C33.3333 33.4785 34.577 34.7222 36.1111 34.7222Z" fill="#A6D388"/>
<path d="M26.9153 2.33189C27.1139 2.71384 27.6264 3.09439 28.05 3.17773L29.9653 3.55134C30.3889 3.63467 30.4889 3.95412 30.1861 4.26245L28.8209 5.65689C28.5195 5.96523 28.3139 6.56939 28.3681 6.99717L28.6042 8.93328C28.657 9.36245 28.3834 9.5555 27.9959 9.36384L26.25 8.49578C25.8625 8.30412 25.225 8.29578 24.8334 8.47773L23.0639 9.30273C22.6722 9.48328 22.4028 9.28328 22.4667 8.8555L22.7514 6.92495C22.8139 6.49856 22.625 5.89023 22.332 5.57356L21 4.14717C20.7056 3.83189 20.8125 3.51245 21.2389 3.44162L23.1625 3.11662C23.5889 3.04578 24.1084 2.67773 24.3181 2.29995L25.2639 0.593004C25.4736 0.215227 25.8111 0.219393 26.0097 0.601338L26.9153 2.33189Z" fill="#FFAC33"/>
</svg>
