<svg width="75" height="75" viewBox="0 0 75 75" fill="none" xmlns="http://www.w3.org/2000/svg">
<rect width="75" height="75" rx="20" fill="white"/>
<path d="M63.8966 32.3276H10.1035V67.5H63.8966V32.3276Z" fill="#7EA82D"/>
<path d="M63.8966 32.3276H10.1035V36.4656H63.8966V32.3276Z" fill="#729C22"/>
<path d="M67 19.9138H7V32.3276H67V19.9138Z" fill="#7EA82D"/>
<path d="M43.2069 19.9138H30.7931V67.5H43.2069V19.9138Z" fill="#DD4A43"/>
<path d="M32.5083 10.9314C31.9929 9.90041 31.2006 9.03333 30.2201 8.42727C29.2397 7.82122 28.1099 7.50014 26.9573 7.5H18.3793C16.7332 7.5 15.1544 8.15394 13.9904 9.31796C12.8264 10.482 12.1724 12.0607 12.1724 13.7069C12.1724 15.3531 12.8264 16.9318 13.9904 18.0958C15.1544 19.2598 16.7332 19.9138 18.3793 19.9138H37L32.5083 10.9314Z" fill="#DD4A43"/>
<path d="M37 19.9138H26.6552C25.009 19.9138 23.4303 19.2598 22.2663 18.0958C21.1022 16.9318 20.4483 15.3531 20.4483 13.7069C20.4483 12.0607 21.1022 10.482 22.2663 9.31796C23.4303 8.15394 25.009 7.5 26.6552 7.5H26.9573C28.1099 7.50014 29.2397 7.82122 30.2201 8.42727C31.2006 9.03333 31.9929 9.90041 32.5083 10.9314L37 19.9138Z" fill="#B0342E"/>
<path d="M41.4917 10.9314C42.0071 9.90041 42.7994 9.03333 43.7799 8.42727C44.7603 7.82122 45.8901 7.50014 47.0428 7.5H55.6207C57.2669 7.5 58.8456 8.15394 60.0096 9.31796C61.1737 10.482 61.8276 12.0607 61.8276 13.7069C61.8276 15.3531 61.1737 16.9318 60.0096 18.0958C58.8456 19.2598 57.2669 19.9138 55.6207 19.9138H37L41.4917 10.9314Z" fill="#DD4A43"/>
<path d="M37 19.9138H47.3448C48.991 19.9138 50.5697 19.2598 51.7338 18.0958C52.8978 16.9318 53.5517 15.3531 53.5517 13.7069C53.5517 12.0607 52.8978 10.482 51.7338 9.31796C50.5697 8.15394 48.991 7.5 47.3448 7.5H47.0428C45.8901 7.50014 44.7603 7.82122 43.7799 8.42727C42.7994 9.03333 42.0071 9.90041 41.4917 10.9314L37 19.9138Z" fill="#B0342E"/>
<path d="M43.2069 41.6379V19.9138H30.7931V42.6724L37 27.1552L43.2069 41.6379Z" fill="#D13E37"/>
<path d="M25.6207 47.8448L21.4828 42.6724L14.2414 44.7414L24.5862 19.9138H37L25.6207 47.8448Z" fill="#DD4A43"/>
<path d="M48.3793 47.8448L52.5172 42.6724L59.7586 44.7414L49.4138 19.9138H37L48.3793 47.8448Z" fill="#DD4A43"/>
<path d="M24.1347 28.8595L20.4867 38.1429L22.4123 38.8996L26.0604 29.6162L24.1347 28.8595Z" fill="#E66B65"/>
<path d="M25.6895 24.7147L24.894 26.7839L26.8252 27.5263L27.6207 25.457L25.6895 24.7147Z" fill="#E66B65"/>
<path d="M15.2759 55.0861H13.2069V64.3965H15.2759V55.0861Z" fill="#95C43B"/>
<path d="M15.2759 50.9482H13.2069V53.0171H15.2759V50.9482Z" fill="#95C43B"/>
</svg>
