<svg width="281" height="50" viewBox="0 0 281 50" fill="none" xmlns="http://www.w3.org/2000/svg">
<path d="M30.6778 45.5972C30.6778 48.3708 28.4292 49.3639 25.6556 49.3639C22.882 49.3639 20.6334 48.3708 20.6334 45.5972L21.8889 34.2972C21.8889 31.525 22.882 31.7861 25.6556 31.7861C28.4292 31.7861 29.4223 31.525 29.4223 34.2972L30.6778 45.5972Z" fill="#662113"/>
<path d="M42.4861 38.4375C33.7445 30.9487 30.2042 20.2264 25.6556 20.2264C21.107 20.2264 17.5667 30.9501 8.82501 38.4375C5.1514 41.5848 6.9014 43.4056 11.9375 43.0403C16.4264 42.7167 20.625 41.6987 25.6556 41.6987C30.6861 41.6987 34.8861 42.7167 39.3722 43.0403C44.4097 43.4056 46.1583 41.5834 42.4861 38.4375Z" fill="#5C913B"/>
<path d="M39.6472 35.4695C32.9292 29.3098 29.1542 20.4875 25.6556 20.4875C22.1597 20.4875 18.3833 29.3098 11.6653 35.4695C6.32641 40.3639 18.6611 41.4625 25.6556 35.4695C32.6472 41.4639 44.9847 40.3639 39.6472 35.4695Z" fill="#3E721D"/>
<path d="M39.6472 30.4791C32.9292 24.7249 29.1542 16.4833 25.6556 16.4833C22.1597 16.4833 18.3833 24.7249 11.6653 30.4791C6.32641 35.0513 18.6611 36.0777 25.6556 30.4791C32.6472 36.0791 44.9847 35.0513 39.6472 30.4791Z" fill="#5C913B"/>
<path d="M36.5778 26.3931C31.3347 21.9001 28.3875 15.4653 25.6556 15.4653C22.9264 15.4653 19.9778 21.8987 14.7333 26.3931C10.5667 29.9626 20.1944 30.7639 25.6556 26.3931C31.1139 30.7626 40.7458 29.9626 36.5778 26.3931Z" fill="#3E721D"/>
<path d="M36.5778 22.6542C31.3347 18.1611 28.3875 11.7278 25.6556 11.7278C22.9264 11.7278 19.9778 18.1611 14.7333 22.6542C10.5667 26.225 20.1944 27.025 25.6556 22.6542C31.1139 27.025 40.7458 26.225 36.5778 22.6542Z" fill="#5C913B"/>
<path d="M34.4695 19.3333C30.2375 15.7083 27.8584 10.5153 25.6542 10.5153C23.4514 10.5153 21.0722 15.7083 16.8389 19.3333C13.475 22.2153 21.2472 22.8611 25.6542 19.3333C30.0625 22.8611 37.8347 22.2153 34.4695 19.3333Z" fill="#3E721D"/>
<path d="M34.4695 16.5195C30.2375 12.8945 27.8584 7.70142 25.6542 7.70142C23.4514 7.70142 21.0722 12.8945 16.8389 16.5195C13.475 19.4014 21.2472 20.0472 25.6542 16.5195C30.0625 20.0472 37.8347 19.4014 34.4695 16.5195Z" fill="#5C913B"/>
<path d="M32.3625 12.3763C29.143 9.61802 27.3333 5.66663 25.6555 5.66663C23.9792 5.66663 22.168 9.61802 18.9472 12.3763C16.3875 14.5694 22.3014 15.0611 25.6555 12.3763C29.0083 15.0611 34.9236 14.5694 32.3625 12.3763Z" fill="#3E721D"/>
<path d="M32.3625 10.8777C29.143 8.11801 27.3333 4.16663 25.6555 4.16663C23.9792 4.16663 22.168 8.11801 18.9472 10.8777C16.3875 13.0708 22.3014 13.5625 25.6555 10.8777C29.0083 13.5611 34.9236 13.0694 32.3625 10.8777Z" fill="#5C913B"/>
<path d="M22.9166 18.8084C24.0672 18.8084 25 17.8757 25 16.7251C25 15.5745 24.0672 14.6417 22.9166 14.6417C21.7661 14.6417 20.8333 15.5745 20.8333 16.7251C20.8333 17.8757 21.7661 18.8084 22.9166 18.8084Z" fill="#FFCC4D"/>
<path d="M27.7778 37.5C29.3119 37.5 30.5556 36.2564 30.5556 34.7222C30.5556 33.1881 29.3119 31.9445 27.7778 31.9445C26.2437 31.9445 25 33.1881 25 34.7222C25 36.2564 26.2437 37.5 27.7778 37.5Z" fill="#FFCC4D"/>
<path d="M31.25 25C33.1676 25 34.7222 23.4454 34.7222 21.5278C34.7222 19.6101 33.1676 18.0555 31.25 18.0555C29.3323 18.0555 27.7778 19.6101 27.7778 21.5278C27.7778 23.4454 29.3323 25 31.25 25Z" fill="#DD2E44"/>
<path d="M13.8889 38.8889C15.423 38.8889 16.6666 37.6453 16.6666 36.1112C16.6666 34.577 15.423 33.3334 13.8889 33.3334C12.3547 33.3334 11.1111 34.577 11.1111 36.1112C11.1111 37.6453 12.3547 38.8889 13.8889 38.8889Z" fill="#DD2E44"/>
<path d="M19.4445 29.1666C20.9786 29.1666 22.2222 27.923 22.2222 26.3889C22.2222 24.8547 20.9786 23.6111 19.4445 23.6111C17.9103 23.6111 16.6667 24.8547 16.6667 26.3889C16.6667 27.923 17.9103 29.1666 19.4445 29.1666Z" fill="#A6D388"/>
<path d="M36.1111 34.7222C37.6452 34.7222 38.8889 33.4785 38.8889 31.9444C38.8889 30.4103 37.6452 29.1666 36.1111 29.1666C34.577 29.1666 33.3333 30.4103 33.3333 31.9444C33.3333 33.4785 34.577 34.7222 36.1111 34.7222Z" fill="#A6D388"/>
<path d="M26.9153 2.33189C27.1139 2.71384 27.6264 3.09439 28.05 3.17773L29.9653 3.55134C30.3889 3.63467 30.4889 3.95412 30.1861 4.26245L28.8209 5.65689C28.5195 5.96523 28.3139 6.56939 28.3681 6.99717L28.6042 8.93328C28.657 9.36245 28.3834 9.5555 27.9959 9.36384L26.25 8.49578C25.8625 8.30412 25.225 8.29578 24.8334 8.47773L23.0639 9.30273C22.6722 9.48328 22.4028 9.28328 22.4667 8.8555L22.7514 6.92495C22.8139 6.49856 22.625 5.89023 22.332 5.57356L21 4.14717C20.7056 3.83189 20.8125 3.51245 21.2389 3.44162L23.1625 3.11662C23.5889 3.04578 24.1084 2.67773 24.3181 2.29995L25.2639 0.593004C25.4736 0.215227 25.8111 0.219393 26.0097 0.601338L26.9153 2.33189Z" fill="#FFAC33"/>
<path d="M75.5645 32.2539V37H61.9238V32.2539H75.5645ZM64.1211 11.4062V37H57.9512V11.4062H64.1211ZM73.8066 21.5664V26.1543H61.9238V21.5664H73.8066ZM75.6172 11.4062V16.1699H61.9238V11.4062H75.6172ZM90.7168 17.9805V22.5508H81.2949V17.9805H90.7168ZM94.8125 17.9805V37H88.8887V17.9805H94.8125ZM79.8008 17.9805H85.584L85.0566 27.7715C84.9863 29.1309 84.8281 30.3203 84.582 31.3398C84.3477 32.3594 84.0312 33.2324 83.6328 33.959C83.2461 34.6738 82.7832 35.2598 82.2441 35.7168C81.7051 36.1621 81.0957 36.4902 80.416 36.7012C79.7363 36.9004 78.998 37 78.2012 37H76.4082L76.3203 32.4648L76.9531 32.3945C77.2695 32.3594 77.5508 32.2539 77.7969 32.0781C78.043 31.9023 78.2598 31.6562 78.4473 31.3398C78.6348 31.0234 78.793 30.6191 78.9219 30.127C79.0625 29.6348 79.1738 29.0547 79.2559 28.3867C79.3496 27.7188 79.4141 26.9512 79.4492 26.084L79.8008 17.9805ZM97.3262 27.6836V27.3145C97.3262 25.9199 97.5254 24.6367 97.9238 23.4648C98.3223 22.2812 98.9082 21.2559 99.6816 20.3887C100.455 19.5215 101.41 18.8477 102.547 18.3672C103.684 17.875 104.996 17.6289 106.484 17.6289C107.984 17.6289 109.303 17.875 110.439 18.3672C111.588 18.8477 112.549 19.5215 113.322 20.3887C114.096 21.2559 114.682 22.2812 115.08 23.4648C115.479 24.6367 115.678 25.9199 115.678 27.3145V27.6836C115.678 29.0664 115.479 30.3496 115.08 31.5332C114.682 32.7051 114.096 33.7305 113.322 34.6094C112.549 35.4766 111.594 36.1504 110.457 36.6309C109.32 37.1113 108.008 37.3516 106.52 37.3516C105.031 37.3516 103.713 37.1113 102.564 36.6309C101.416 36.1504 100.455 35.4766 99.6816 34.6094C98.9082 33.7305 98.3223 32.7051 97.9238 31.5332C97.5254 30.3496 97.3262 29.0664 97.3262 27.6836ZM103.25 27.3145V27.6836C103.25 28.3984 103.303 29.0664 103.408 29.6875C103.514 30.3086 103.689 30.8535 103.936 31.3223C104.182 31.7793 104.516 32.1367 104.938 32.3945C105.359 32.6523 105.887 32.7812 106.52 32.7812C107.141 32.7812 107.656 32.6523 108.066 32.3945C108.488 32.1367 108.822 31.7793 109.068 31.3223C109.314 30.8535 109.49 30.3086 109.596 29.6875C109.701 29.0664 109.754 28.3984 109.754 27.6836V27.3145C109.754 26.623 109.701 25.9727 109.596 25.3633C109.49 24.7422 109.314 24.1973 109.068 23.7285C108.822 23.248 108.488 22.873 108.066 22.6035C107.645 22.334 107.117 22.1992 106.484 22.1992C105.863 22.1992 105.342 22.334 104.92 22.6035C104.51 22.873 104.182 23.248 103.936 23.7285C103.689 24.1973 103.514 24.7422 103.408 25.3633C103.303 25.9727 103.25 26.623 103.25 27.3145ZM128.105 29.248H122.27L122.234 25.5918H127.086C127.566 25.5918 127.947 25.5391 128.229 25.4336C128.521 25.3281 128.727 25.1699 128.844 24.959C128.973 24.7363 129.037 24.4727 129.037 24.168C129.037 23.8633 128.99 23.6055 128.896 23.3945C128.814 23.1836 128.68 23.0137 128.492 22.8848C128.316 22.7559 128.094 22.6621 127.824 22.6035C127.555 22.5449 127.238 22.5156 126.875 22.5156H124.643V37H118.719V17.9805H126.875C128.129 17.9805 129.254 18.0918 130.25 18.3145C131.246 18.5254 132.09 18.8535 132.781 19.2988C133.484 19.7324 134.023 20.2832 134.398 20.9512C134.773 21.6191 134.961 22.4043 134.961 23.3066C134.961 23.8926 134.82 24.4434 134.539 24.959C134.258 25.4746 133.842 25.9316 133.291 26.3301C132.752 26.7285 132.084 27.0566 131.287 27.3145C130.49 27.5605 129.576 27.7129 128.545 27.7715L128.105 29.248ZM128.105 37H120.986L122.797 32.4648H128.105C128.598 32.4648 128.996 32.4062 129.301 32.2891C129.605 32.1719 129.828 31.9961 129.969 31.7617C130.109 31.5273 130.18 31.2402 130.18 30.9004C130.18 30.5723 130.121 30.2852 130.004 30.0391C129.887 29.793 129.676 29.5996 129.371 29.459C129.078 29.3184 128.656 29.248 128.105 29.248H123.465L123.5 25.5918H128.51L129.775 27.0859C131.252 27.168 132.453 27.4199 133.379 27.8418C134.316 28.2637 135.002 28.7969 135.436 29.4414C135.881 30.0859 136.104 30.7949 136.104 31.5684C136.104 32.4707 135.928 33.2617 135.576 33.9414C135.236 34.6211 134.727 35.1895 134.047 35.6465C133.367 36.0918 132.529 36.4316 131.533 36.666C130.549 36.8887 129.406 37 128.105 37ZM142.484 23.2012H147.898C149.727 23.2012 151.291 23.4941 152.592 24.0801C153.904 24.6543 154.912 25.4688 155.615 26.5234C156.318 27.5664 156.67 28.7852 156.67 30.1797C156.67 31.1758 156.471 32.0957 156.072 32.9395C155.674 33.7715 155.094 34.4922 154.332 35.1016C153.582 35.6992 152.662 36.168 151.572 36.5078C150.494 36.8359 149.27 37 147.898 37H138.934V17.9805H144.875V32.4648H147.898C148.578 32.4648 149.123 32.3594 149.533 32.1484C149.955 31.9375 150.266 31.6562 150.465 31.3047C150.664 30.9531 150.764 30.5664 150.764 30.1445C150.764 29.6758 150.664 29.2656 150.465 28.9141C150.266 28.5508 149.955 28.2695 149.533 28.0703C149.123 27.8594 148.578 27.7539 147.898 27.7539H142.484V23.2012ZM165.441 17.9805V37H159.5V17.9805H165.441ZM175.057 29.0195L180.295 17.9805H186.219V37H180.295V25.9258L175.057 37H169.115V17.9805H175.057V29.0195ZM180.26 9.96484H184.32C184.32 11.0195 184.051 11.957 183.512 12.7773C182.984 13.5859 182.234 14.2188 181.262 14.6758C180.289 15.1328 179.141 15.3613 177.816 15.3613C175.812 15.3613 174.225 14.8633 173.053 13.8672C171.881 12.8594 171.295 11.5586 171.295 9.96484H175.338C175.338 10.5391 175.525 11.0547 175.9 11.5117C176.275 11.9688 176.914 12.1973 177.816 12.1973C178.719 12.1973 179.352 11.9688 179.715 11.5117C180.078 11.0547 180.26 10.5391 180.26 9.96484ZM201.881 17.9805H207.805L207.717 23.9746C207.682 26.1309 207.43 27.9824 206.961 29.5293C206.504 31.0645 205.883 32.3477 205.098 33.3789C204.312 34.3984 203.41 35.2012 202.391 35.7871C201.383 36.3613 200.316 36.7656 199.191 37H198.559L198.436 32.5L198.893 32.4297C199.596 31.7266 200.141 31.0586 200.527 30.4258C200.926 29.7812 201.207 29.1367 201.371 28.4922C201.547 27.8477 201.658 27.1621 201.705 26.4355C201.752 25.6973 201.781 24.877 201.793 23.9746L201.881 17.9805ZM203.533 17.9805H216.682V37H210.775V22.5508H203.533V17.9805ZM197.205 32.4297H219.529V42.7656H213.605V37H203.287V42.7656H197.205V32.4297ZM231.359 29.248H225.523L225.488 25.5918H230.34C230.82 25.5918 231.201 25.5391 231.482 25.4336C231.775 25.3281 231.98 25.1699 232.098 24.959C232.227 24.7363 232.291 24.4727 232.291 24.168C232.291 23.8633 232.244 23.6055 232.15 23.3945C232.068 23.1836 231.934 23.0137 231.746 22.8848C231.57 22.7559 231.348 22.6621 231.078 22.6035C230.809 22.5449 230.492 22.5156 230.129 22.5156H227.896V37H221.973V17.9805H230.129C231.383 17.9805 232.508 18.0918 233.504 18.3145C234.5 18.5254 235.344 18.8535 236.035 19.2988C236.738 19.7324 237.277 20.2832 237.652 20.9512C238.027 21.6191 238.215 22.4043 238.215 23.3066C238.215 23.8926 238.074 24.4434 237.793 24.959C237.512 25.4746 237.096 25.9316 236.545 26.3301C236.006 26.7285 235.338 27.0566 234.541 27.3145C233.744 27.5605 232.83 27.7129 231.799 27.7715L231.359 29.248ZM231.359 37H224.24L226.051 32.4648H231.359C231.852 32.4648 232.25 32.4062 232.555 32.2891C232.859 32.1719 233.082 31.9961 233.223 31.7617C233.363 31.5273 233.434 31.2402 233.434 30.9004C233.434 30.5723 233.375 30.2852 233.258 30.0391C233.141 29.793 232.93 29.5996 232.625 29.459C232.332 29.3184 231.91 29.248 231.359 29.248H226.719L226.754 25.5918H231.764L233.029 27.0859C234.506 27.168 235.707 27.4199 236.633 27.8418C237.57 28.2637 238.256 28.7969 238.689 29.4414C239.135 30.0859 239.357 30.7949 239.357 31.5684C239.357 32.4707 239.182 33.2617 238.83 33.9414C238.49 34.6211 237.98 35.1895 237.301 35.6465C236.621 36.0918 235.783 36.4316 234.787 36.666C233.803 36.8887 232.66 37 231.359 37ZM241.045 27.6836V27.3145C241.045 25.9199 241.244 24.6367 241.643 23.4648C242.041 22.2812 242.627 21.2559 243.4 20.3887C244.174 19.5215 245.129 18.8477 246.266 18.3672C247.402 17.875 248.715 17.6289 250.203 17.6289C251.703 17.6289 253.021 17.875 254.158 18.3672C255.307 18.8477 256.268 19.5215 257.041 20.3887C257.814 21.2559 258.4 22.2812 258.799 23.4648C259.197 24.6367 259.396 25.9199 259.396 27.3145V27.6836C259.396 29.0664 259.197 30.3496 258.799 31.5332C258.4 32.7051 257.814 33.7305 257.041 34.6094C256.268 35.4766 255.312 36.1504 254.176 36.6309C253.039 37.1113 251.727 37.3516 250.238 37.3516C248.75 37.3516 247.432 37.1113 246.283 36.6309C245.135 36.1504 244.174 35.4766 243.4 34.6094C242.627 33.7305 242.041 32.7051 241.643 31.5332C241.244 30.3496 241.045 29.0664 241.045 27.6836ZM246.969 27.3145V27.6836C246.969 28.3984 247.021 29.0664 247.127 29.6875C247.232 30.3086 247.408 30.8535 247.654 31.3223C247.9 31.7793 248.234 32.1367 248.656 32.3945C249.078 32.6523 249.605 32.7812 250.238 32.7812C250.859 32.7812 251.375 32.6523 251.785 32.3945C252.207 32.1367 252.541 31.7793 252.787 31.3223C253.033 30.8535 253.209 30.3086 253.314 29.6875C253.42 29.0664 253.473 28.3984 253.473 27.6836V27.3145C253.473 26.623 253.42 25.9727 253.314 25.3633C253.209 24.7422 253.033 24.1973 252.787 23.7285C252.541 23.248 252.207 22.873 251.785 22.6035C251.363 22.334 250.836 22.1992 250.203 22.1992C249.582 22.1992 249.061 22.334 248.639 22.6035C248.229 22.873 247.9 23.248 247.654 23.7285C247.408 24.1973 247.232 24.7422 247.127 25.3633C247.021 25.9727 246.969 26.623 246.969 27.3145ZM268.01 21.6367V44.3125H262.086V17.9805H267.605L268.01 21.6367ZM279.682 27.2617V27.6309C279.682 29.0137 279.523 30.2969 279.207 31.4805C278.891 32.6641 278.422 33.6953 277.801 34.5742C277.18 35.4531 276.406 36.1387 275.48 36.6309C274.566 37.1113 273.506 37.3516 272.299 37.3516C271.162 37.3516 270.184 37.0996 269.363 36.5957C268.543 36.0918 267.857 35.3945 267.307 34.5039C266.756 33.6133 266.311 32.5938 265.971 31.4453C265.631 30.2969 265.361 29.084 265.162 27.8066V27.332C265.361 25.9609 265.631 24.6895 265.971 23.5176C266.311 22.334 266.756 21.3027 267.307 20.4238C267.857 19.5449 268.537 18.8594 269.346 18.3672C270.166 17.875 271.145 17.6289 272.281 17.6289C273.488 17.6289 274.549 17.8574 275.463 18.3145C276.389 18.7715 277.162 19.4277 277.783 20.2832C278.416 21.127 278.891 22.1406 279.207 23.3242C279.523 24.5078 279.682 25.8203 279.682 27.2617ZM273.758 27.6309V27.2617C273.758 26.5234 273.705 25.8496 273.6 25.2402C273.494 24.6191 273.324 24.0801 273.09 23.623C272.867 23.166 272.568 22.8145 272.193 22.5684C271.818 22.3223 271.355 22.1992 270.805 22.1992C270.172 22.1992 269.639 22.2988 269.205 22.498C268.783 22.6855 268.443 22.9785 268.186 23.377C267.939 23.7637 267.764 24.25 267.658 24.8359C267.564 25.4102 267.523 26.084 267.535 26.8574V28.2988C267.512 29.1895 267.6 29.9746 267.799 30.6543C267.998 31.3223 268.344 31.8438 268.836 32.2188C269.328 32.5938 269.996 32.7812 270.84 32.7812C271.402 32.7812 271.871 32.6523 272.246 32.3945C272.621 32.125 272.92 31.7559 273.143 31.2871C273.365 30.8066 273.523 30.2559 273.617 29.6348C273.711 29.0137 273.758 28.3457 273.758 27.6309Z" fill="url(#paint0_linear_3_1417)"/>
<defs>
<linearGradient id="paint0_linear_3_1417" x1="64.0357" y1="25" x2="281" y2="25" gradientUnits="userSpaceOnUse">
<stop stop-color="#15803D"/>
<stop offset="1" stop-color="#22C55E"/>
</linearGradient>
</defs>
</svg>
