<svg width="252" height="50" viewBox="0 0 252 50" fill="none" xmlns="http://www.w3.org/2000/svg">
<path d="M30.6777 45.5972C30.6777 48.3708 28.4291 49.3639 25.6555 49.3639C22.8819 49.3639 20.6333 48.3708 20.6333 45.5972L21.8889 34.2972C21.8889 31.525 22.8819 31.7861 25.6555 31.7861C28.4291 31.7861 29.4222 31.525 29.4222 34.2972L30.6777 45.5972Z" fill="#662113"/>
<path d="M42.4861 38.4376C33.7444 30.9487 30.2041 20.2264 25.6555 20.2264C21.1069 20.2264 17.5666 30.9501 8.82495 38.4376C5.15134 41.5848 6.90134 43.4056 11.9375 43.0403C16.4263 42.7167 20.625 41.6987 25.6555 41.6987C30.6861 41.6987 34.8861 42.7167 39.3722 43.0403C44.4097 43.4056 46.1583 41.5834 42.4861 38.4376Z" fill="#5C913B"/>
<path d="M39.6472 35.4695C32.9292 29.3098 29.1542 20.4875 25.6556 20.4875C22.1597 20.4875 18.3833 29.3098 11.6653 35.4695C6.32641 40.3639 18.6611 41.4625 25.6556 35.4695C32.6472 41.4639 44.9847 40.3639 39.6472 35.4695Z" fill="#3E721D"/>
<path d="M39.6472 30.4791C32.9292 24.7249 29.1542 16.4833 25.6556 16.4833C22.1597 16.4833 18.3833 24.7249 11.6653 30.4791C6.32641 35.0513 18.6611 36.0777 25.6556 30.4791C32.6472 36.0791 44.9847 35.0513 39.6472 30.4791Z" fill="#5C913B"/>
<path d="M36.5778 26.3931C31.3347 21.9001 28.3875 15.4653 25.6556 15.4653C22.9264 15.4653 19.9778 21.8987 14.7333 26.3931C10.5667 29.9626 20.1944 30.7639 25.6556 26.3931C31.1139 30.7626 40.7458 29.9626 36.5778 26.3931Z" fill="#3E721D"/>
<path d="M36.5778 22.6542C31.3347 18.1611 28.3875 11.7278 25.6556 11.7278C22.9264 11.7278 19.9778 18.1611 14.7333 22.6542C10.5667 26.225 20.1944 27.025 25.6556 22.6542C31.1139 27.025 40.7458 26.225 36.5778 22.6542Z" fill="#5C913B"/>
<path d="M34.4695 19.3333C30.2375 15.7083 27.8584 10.5153 25.6542 10.5153C23.4514 10.5153 21.0722 15.7083 16.8389 19.3333C13.475 22.2153 21.2472 22.8611 25.6542 19.3333C30.0625 22.8611 37.8347 22.2153 34.4695 19.3333Z" fill="#3E721D"/>
<path d="M34.4695 16.5195C30.2375 12.8945 27.8584 7.70142 25.6542 7.70142C23.4514 7.70142 21.0722 12.8945 16.8389 16.5195C13.475 19.4014 21.2472 20.0472 25.6542 16.5195C30.0625 20.0472 37.8347 19.4014 34.4695 16.5195Z" fill="#5C913B"/>
<path d="M32.3625 12.3763C29.1431 9.61802 27.3334 5.66663 25.6556 5.66663C23.9792 5.66663 22.1681 9.61802 18.9473 12.3763C16.3875 14.5694 22.3014 15.0611 25.6556 12.3763C29.0084 15.0611 34.9237 14.5694 32.3625 12.3763Z" fill="#3E721D"/>
<path d="M32.3625 10.8777C29.1431 8.11801 27.3334 4.16663 25.6556 4.16663C23.9792 4.16663 22.1681 8.11801 18.9473 10.8777C16.3875 13.0708 22.3014 13.5625 25.6556 10.8777C29.0084 13.5611 34.9237 13.0694 32.3625 10.8777Z" fill="#5C913B"/>
<path d="M22.9167 18.8084C24.0673 18.8084 25 17.8757 25 16.7251C25 15.5745 24.0673 14.6417 22.9167 14.6417C21.7661 14.6417 20.8334 15.5745 20.8334 16.7251C20.8334 17.8757 21.7661 18.8084 22.9167 18.8084Z" fill="#FFCC4D"/>
<path d="M27.7778 37.5C29.3119 37.5 30.5556 36.2564 30.5556 34.7222C30.5556 33.1881 29.3119 31.9445 27.7778 31.9445C26.2437 31.9445 25 33.1881 25 34.7222C25 36.2564 26.2437 37.5 27.7778 37.5Z" fill="#FFCC4D"/>
<path d="M31.2501 25C33.1677 25 34.7223 23.4454 34.7223 21.5278C34.7223 19.6101 33.1677 18.0555 31.2501 18.0555C29.3324 18.0555 27.7778 19.6101 27.7778 21.5278C27.7778 23.4454 29.3324 25 31.2501 25Z" fill="#DD2E44"/>
<path d="M13.8889 38.8889C15.423 38.8889 16.6666 37.6453 16.6666 36.1112C16.6666 34.577 15.423 33.3334 13.8889 33.3334C12.3547 33.3334 11.1111 34.577 11.1111 36.1112C11.1111 37.6453 12.3547 38.8889 13.8889 38.8889Z" fill="#DD2E44"/>
<path d="M19.4444 29.1666C20.9785 29.1666 22.2222 27.923 22.2222 26.3889C22.2222 24.8547 20.9785 23.6111 19.4444 23.6111C17.9103 23.6111 16.6666 24.8547 16.6666 26.3889C16.6666 27.923 17.9103 29.1666 19.4444 29.1666Z" fill="#A6D388"/>
<path d="M36.1112 34.7222C37.6453 34.7222 38.8889 33.4785 38.8889 31.9444C38.8889 30.4103 37.6453 29.1666 36.1112 29.1666C34.577 29.1666 33.3334 30.4103 33.3334 31.9444C33.3334 33.4785 34.577 34.7222 36.1112 34.7222Z" fill="#A6D388"/>
<path d="M26.9153 2.33189C27.1139 2.71384 27.6264 3.09439 28.05 3.17773L29.9653 3.55134C30.3889 3.63467 30.4889 3.95412 30.1861 4.26245L28.8209 5.65689C28.5195 5.96523 28.3139 6.56939 28.3681 6.99717L28.6042 8.93328C28.657 9.36245 28.3834 9.5555 27.9959 9.36384L26.25 8.49578C25.8625 8.30412 25.225 8.29578 24.8334 8.47773L23.0639 9.30273C22.6722 9.48328 22.4028 9.28328 22.4667 8.8555L22.7514 6.92495C22.8139 6.49856 22.625 5.89023 22.332 5.57356L21 4.14717C20.7056 3.83189 20.8125 3.51245 21.2389 3.44162L23.1625 3.11662C23.5889 3.04578 24.1084 2.67773 24.3181 2.29995L25.2639 0.593004C25.4736 0.215227 25.8111 0.219393 26.0097 0.601338L26.9153 2.33189Z" fill="#FFAC33"/>
<path d="M69.3906 31.7812V36H57.2656V31.7812H69.3906ZM59.2188 13.25V36H53.7344V13.25H59.2188ZM67.8281 22.2812V26.3594H57.2656V22.2812H67.8281ZM69.4375 13.25V17.4844H57.2656V13.25H69.4375ZM82.8594 19.0938V23.1562H74.4844V19.0938H82.8594ZM86.5 19.0938V36H81.2344V19.0938H86.5ZM73.1562 19.0938H78.2969L77.8281 27.7969C77.7656 29.0052 77.625 30.0625 77.4062 30.9688C77.1979 31.875 76.9167 32.651 76.5625 33.2969C76.2188 33.9323 75.8073 34.4531 75.3281 34.8594C74.849 35.2552 74.3073 35.5469 73.7031 35.7344C73.099 35.9115 72.4427 36 71.7344 36H70.1406L70.0625 31.9688L70.625 31.9062C70.9062 31.875 71.1562 31.7812 71.375 31.625C71.5938 31.4688 71.7865 31.25 71.9531 30.9688C72.1198 30.6875 72.2604 30.3281 72.375 29.8906C72.5 29.4531 72.599 28.9375 72.6719 28.3438C72.7552 27.75 72.8125 27.0677 72.8438 26.2969L73.1562 19.0938ZM88.7344 27.7188V27.3906C88.7344 26.151 88.9115 25.0104 89.2656 23.9688C89.6198 22.9167 90.1406 22.0052 90.8281 21.2344C91.5156 20.4635 92.3646 19.8646 93.375 19.4375C94.3854 19 95.5521 18.7812 96.875 18.7812C98.2083 18.7812 99.3802 19 100.391 19.4375C101.411 19.8646 102.266 20.4635 102.953 21.2344C103.641 22.0052 104.161 22.9167 104.516 23.9688C104.87 25.0104 105.047 26.151 105.047 27.3906V27.7188C105.047 28.9479 104.87 30.0885 104.516 31.1406C104.161 32.1823 103.641 33.0938 102.953 33.875C102.266 34.6458 101.417 35.2448 100.406 35.6719C99.3958 36.099 98.2292 36.3125 96.9062 36.3125C95.5833 36.3125 94.4115 36.099 93.3906 35.6719C92.3698 35.2448 91.5156 34.6458 90.8281 33.875C90.1406 33.0938 89.6198 32.1823 89.2656 31.1406C88.9115 30.0885 88.7344 28.9479 88.7344 27.7188ZM94 27.3906V27.7188C94 28.3542 94.0469 28.9479 94.1406 29.5C94.2344 30.0521 94.3906 30.5365 94.6094 30.9531C94.8281 31.3594 95.125 31.6771 95.5 31.9062C95.875 32.1354 96.3438 32.25 96.9062 32.25C97.4583 32.25 97.9167 32.1354 98.2812 31.9062C98.6562 31.6771 98.9531 31.3594 99.1719 30.9531C99.3906 30.5365 99.5469 30.0521 99.6406 29.5C99.7344 28.9479 99.7812 28.3542 99.7812 27.7188V27.3906C99.7812 26.776 99.7344 26.1979 99.6406 25.6562C99.5469 25.1042 99.3906 24.6198 99.1719 24.2031C98.9531 23.776 98.6562 23.4427 98.2812 23.2031C97.9062 22.9635 97.4375 22.8438 96.875 22.8438C96.3229 22.8438 95.8594 22.9635 95.4844 23.2031C95.1198 23.4427 94.8281 23.776 94.6094 24.2031C94.3906 24.6198 94.2344 25.1042 94.1406 25.6562C94.0469 26.1979 94 26.776 94 27.3906ZM116.094 29.1094H110.906L110.875 25.8594H115.188C115.615 25.8594 115.953 25.8125 116.203 25.7188C116.464 25.625 116.646 25.4844 116.75 25.2969C116.865 25.099 116.922 24.8646 116.922 24.5938C116.922 24.3229 116.88 24.0938 116.797 23.9062C116.724 23.7188 116.604 23.5677 116.438 23.4531C116.281 23.3385 116.083 23.2552 115.844 23.2031C115.604 23.151 115.323 23.125 115 23.125H113.016V36H107.75V19.0938H115C116.115 19.0938 117.115 19.1927 118 19.3906C118.885 19.5781 119.635 19.8698 120.25 20.2656C120.875 20.651 121.354 21.1406 121.688 21.7344C122.021 22.3281 122.188 23.026 122.188 23.8281C122.188 24.349 122.062 24.8385 121.812 25.2969C121.562 25.7552 121.193 26.1615 120.703 26.5156C120.224 26.8698 119.63 27.1615 118.922 27.3906C118.214 27.6094 117.401 27.7448 116.484 27.7969L116.094 29.1094ZM116.094 36H109.766L111.375 31.9688H116.094C116.531 31.9688 116.885 31.9167 117.156 31.8125C117.427 31.7083 117.625 31.5521 117.75 31.3438C117.875 31.1354 117.938 30.8802 117.938 30.5781C117.938 30.2865 117.885 30.0312 117.781 29.8125C117.677 29.5938 117.49 29.4219 117.219 29.2969C116.958 29.1719 116.583 29.1094 116.094 29.1094H111.969L112 25.8594H116.453L117.578 27.1875C118.891 27.2604 119.958 27.4844 120.781 27.8594C121.615 28.2344 122.224 28.7083 122.609 29.2812C123.005 29.8542 123.203 30.4844 123.203 31.1719C123.203 31.974 123.047 32.6771 122.734 33.2812C122.432 33.8854 121.979 34.3906 121.375 34.7969C120.771 35.1927 120.026 35.4948 119.141 35.7031C118.266 35.901 117.25 36 116.094 36ZM128.875 23.7344H133.688C135.312 23.7344 136.703 23.9948 137.859 24.5156C139.026 25.026 139.922 25.75 140.547 26.6875C141.172 27.6146 141.484 28.6979 141.484 29.9375C141.484 30.8229 141.307 31.6406 140.953 32.3906C140.599 33.1302 140.083 33.7708 139.406 34.3125C138.74 34.8438 137.922 35.2604 136.953 35.5625C135.995 35.8542 134.906 36 133.688 36H125.719V19.0938H131V31.9688H133.688C134.292 31.9688 134.776 31.875 135.141 31.6875C135.516 31.5 135.792 31.25 135.969 30.9375C136.146 30.625 136.234 30.2812 136.234 29.9062C136.234 29.4896 136.146 29.125 135.969 28.8125C135.792 28.4896 135.516 28.2396 135.141 28.0625C134.776 27.875 134.292 27.7812 133.688 27.7812H128.875V23.7344ZM149.281 19.0938V36H144V19.0938H149.281ZM157.828 28.9062L162.484 19.0938H167.75V36H162.484V26.1562L157.828 36H152.547V19.0938H157.828V28.9062ZM162.453 11.9688H166.062C166.062 12.9062 165.823 13.7396 165.344 14.4688C164.875 15.1875 164.208 15.75 163.344 16.1562C162.479 16.5625 161.458 16.7656 160.281 16.7656C158.5 16.7656 157.089 16.3229 156.047 15.4375C155.005 14.5417 154.484 13.3854 154.484 11.9688H158.078C158.078 12.4792 158.245 12.9375 158.578 13.3438C158.911 13.75 159.479 13.9531 160.281 13.9531C161.083 13.9531 161.646 13.75 161.969 13.3438C162.292 12.9375 162.453 12.4792 162.453 11.9688ZM181.672 19.0938H186.938L186.859 24.4219C186.828 26.3385 186.604 27.9844 186.188 29.3594C185.781 30.724 185.229 31.8646 184.531 32.7812C183.833 33.6875 183.031 34.401 182.125 34.9219C181.229 35.4323 180.281 35.7917 179.281 36H178.719L178.609 32L179.016 31.9375C179.641 31.3125 180.125 30.7188 180.469 30.1562C180.823 29.5833 181.073 29.0104 181.219 28.4375C181.375 27.8646 181.474 27.2552 181.516 26.6094C181.557 25.9531 181.583 25.224 181.594 24.4219L181.672 19.0938ZM183.141 19.0938H194.828V36H189.578V23.1562H183.141V19.0938ZM177.516 31.9375H197.359V41.125H192.094V36H182.922V41.125H177.516V31.9375ZM207.875 29.1094H202.688L202.656 25.8594H206.969C207.396 25.8594 207.734 25.8125 207.984 25.7188C208.245 25.625 208.427 25.4844 208.531 25.2969C208.646 25.099 208.703 24.8646 208.703 24.5938C208.703 24.3229 208.661 24.0938 208.578 23.9062C208.505 23.7188 208.385 23.5677 208.219 23.4531C208.062 23.3385 207.865 23.2552 207.625 23.2031C207.385 23.151 207.104 23.125 206.781 23.125H204.797V36H199.531V19.0938H206.781C207.896 19.0938 208.896 19.1927 209.781 19.3906C210.667 19.5781 211.417 19.8698 212.031 20.2656C212.656 20.651 213.135 21.1406 213.469 21.7344C213.802 22.3281 213.969 23.026 213.969 23.8281C213.969 24.349 213.844 24.8385 213.594 25.2969C213.344 25.7552 212.974 26.1615 212.484 26.5156C212.005 26.8698 211.411 27.1615 210.703 27.3906C209.995 27.6094 209.182 27.7448 208.266 27.7969L207.875 29.1094ZM207.875 36H201.547L203.156 31.9688H207.875C208.312 31.9688 208.667 31.9167 208.938 31.8125C209.208 31.7083 209.406 31.5521 209.531 31.3438C209.656 31.1354 209.719 30.8802 209.719 30.5781C209.719 30.2865 209.667 30.0312 209.562 29.8125C209.458 29.5938 209.271 29.4219 209 29.2969C208.74 29.1719 208.365 29.1094 207.875 29.1094H203.75L203.781 25.8594H208.234L209.359 27.1875C210.672 27.2604 211.74 27.4844 212.562 27.8594C213.396 28.2344 214.005 28.7083 214.391 29.2812C214.786 29.8542 214.984 30.4844 214.984 31.1719C214.984 31.974 214.828 32.6771 214.516 33.2812C214.214 33.8854 213.76 34.3906 213.156 34.7969C212.552 35.1927 211.807 35.4948 210.922 35.7031C210.047 35.901 209.031 36 207.875 36ZM216.484 27.7188V27.3906C216.484 26.151 216.661 25.0104 217.016 23.9688C217.37 22.9167 217.891 22.0052 218.578 21.2344C219.266 20.4635 220.115 19.8646 221.125 19.4375C222.135 19 223.302 18.7812 224.625 18.7812C225.958 18.7812 227.13 19 228.141 19.4375C229.161 19.8646 230.016 20.4635 230.703 21.2344C231.391 22.0052 231.911 22.9167 232.266 23.9688C232.62 25.0104 232.797 26.151 232.797 27.3906V27.7188C232.797 28.9479 232.62 30.0885 232.266 31.1406C231.911 32.1823 231.391 33.0938 230.703 33.875C230.016 34.6458 229.167 35.2448 228.156 35.6719C227.146 36.099 225.979 36.3125 224.656 36.3125C223.333 36.3125 222.161 36.099 221.141 35.6719C220.12 35.2448 219.266 34.6458 218.578 33.875C217.891 33.0938 217.37 32.1823 217.016 31.1406C216.661 30.0885 216.484 28.9479 216.484 27.7188ZM221.75 27.3906V27.7188C221.75 28.3542 221.797 28.9479 221.891 29.5C221.984 30.0521 222.141 30.5365 222.359 30.9531C222.578 31.3594 222.875 31.6771 223.25 31.9062C223.625 32.1354 224.094 32.25 224.656 32.25C225.208 32.25 225.667 32.1354 226.031 31.9062C226.406 31.6771 226.703 31.3594 226.922 30.9531C227.141 30.5365 227.297 30.0521 227.391 29.5C227.484 28.9479 227.531 28.3542 227.531 27.7188V27.3906C227.531 26.776 227.484 26.1979 227.391 25.6562C227.297 25.1042 227.141 24.6198 226.922 24.2031C226.703 23.776 226.406 23.4427 226.031 23.2031C225.656 22.9635 225.188 22.8438 224.625 22.8438C224.073 22.8438 223.609 22.9635 223.234 23.2031C222.87 23.4427 222.578 23.776 222.359 24.2031C222.141 24.6198 221.984 25.1042 221.891 25.6562C221.797 26.1979 221.75 26.776 221.75 27.3906ZM240.453 22.3438V42.5H235.188V19.0938H240.094L240.453 22.3438ZM250.828 27.3438V27.6719C250.828 28.901 250.688 30.0417 250.406 31.0938C250.125 32.1458 249.708 33.0625 249.156 33.8438C248.604 34.625 247.917 35.2344 247.094 35.6719C246.281 36.099 245.339 36.3125 244.266 36.3125C243.255 36.3125 242.385 36.0885 241.656 35.6406C240.927 35.1927 240.318 34.5729 239.828 33.7812C239.339 32.9896 238.943 32.0833 238.641 31.0625C238.339 30.0417 238.099 28.9635 237.922 27.8281V27.4062C238.099 26.1875 238.339 25.0573 238.641 24.0156C238.943 22.9635 239.339 22.0469 239.828 21.2656C240.318 20.4844 240.922 19.875 241.641 19.4375C242.37 19 243.24 18.7812 244.25 18.7812C245.323 18.7812 246.266 18.9844 247.078 19.3906C247.901 19.7969 248.589 20.3802 249.141 21.1406C249.703 21.8906 250.125 22.7917 250.406 23.8438C250.688 24.8958 250.828 26.0625 250.828 27.3438ZM245.562 27.6719V27.3438C245.562 26.6875 245.516 26.0885 245.422 25.5469C245.328 24.9948 245.177 24.5156 244.969 24.1094C244.771 23.7031 244.505 23.3906 244.172 23.1719C243.839 22.9531 243.427 22.8438 242.938 22.8438C242.375 22.8438 241.901 22.9323 241.516 23.1094C241.141 23.276 240.839 23.5365 240.609 23.8906C240.391 24.2344 240.234 24.6667 240.141 25.1875C240.057 25.6979 240.021 26.2969 240.031 26.9844V28.2656C240.01 29.0573 240.089 29.7552 240.266 30.3594C240.443 30.9531 240.75 31.4167 241.188 31.75C241.625 32.0833 242.219 32.25 242.969 32.25C243.469 32.25 243.885 32.1354 244.219 31.9062C244.552 31.6667 244.818 31.3385 245.016 30.9219C245.214 30.4948 245.354 30.0052 245.438 29.4531C245.521 28.901 245.562 28.3073 245.562 27.6719Z" fill="url(#paint0_linear_42_568)"/>
<defs>
<linearGradient id="paint0_linear_42_568" x1="59.1429" y1="25" x2="252" y2="25" gradientUnits="userSpaceOnUse">
<stop stop-color="#15803D"/>
<stop offset="1" stop-color="#22C55E"/>
</linearGradient>
</defs>
</svg>
