<svg width="1071" height="135" viewBox="0 0 1071 135" fill="none" xmlns="http://www.w3.org/2000/svg">
<path d="M28.584 60.68H68.52V82.44H28.584V60.68ZM30.632 94.216H75.432V117H0.936V27.4H73.768V50.184H30.632V94.216ZM94.342 118.664C92.4647 118.664 90.4593 118.536 88.326 118.28C86.1927 118.024 83.9313 117.597 81.542 117L83.078 92.808C84.2727 93.064 85.382 93.192 86.406 93.192C89.734 93.192 92.2087 91.8267 93.83 89.096C95.4513 86.3653 96.5607 82.696 97.158 78.088C97.7553 73.3947 98.1393 68.1467 98.31 62.344L99.462 27.4H175.11V117H145.414V44.424L151.942 50.824H119.302L125.19 44.04L124.678 61.192C124.422 69.8107 123.825 77.6613 122.886 84.744C122.033 91.7413 120.539 97.8 118.406 102.92C116.273 107.955 113.243 111.837 109.318 114.568C105.478 117.299 100.486 118.664 94.342 118.664ZM236.504 119.048C229.251 119.048 222.509 117.896 216.28 115.592C210.136 113.288 204.803 110.045 200.28 105.864C195.757 101.597 192.216 96.6053 189.656 90.888C187.181 85.1707 185.944 78.9413 185.944 72.2C185.944 65.3733 187.181 59.144 189.656 53.512C192.216 47.7947 195.757 42.8453 200.28 38.664C204.803 34.3973 210.136 31.112 216.28 28.808C222.509 26.504 229.251 25.352 236.504 25.352C243.843 25.352 250.584 26.504 256.728 28.808C262.872 31.112 268.205 34.3973 272.728 38.664C277.251 42.8453 280.749 47.7947 283.224 53.512C285.784 59.144 287.064 65.3733 287.064 72.2C287.064 78.9413 285.784 85.1707 283.224 90.888C280.749 96.6053 277.251 101.597 272.728 105.864C268.205 110.045 262.872 113.288 256.728 115.592C250.584 117.896 243.843 119.048 236.504 119.048ZM236.504 94.6C239.32 94.6 241.923 94.088 244.312 93.064C246.787 92.04 248.92 90.5893 250.712 88.712C252.589 86.7493 254.04 84.4027 255.064 81.672C256.088 78.856 256.6 75.6987 256.6 72.2C256.6 68.7013 256.088 65.5867 255.064 62.856C254.04 60.04 252.589 57.6933 250.712 55.816C248.92 53.8533 246.787 52.36 244.312 51.336C241.923 50.312 239.32 49.8 236.504 49.8C233.688 49.8 231.043 50.312 228.568 51.336C226.179 52.36 224.045 53.8533 222.168 55.816C220.376 57.6933 218.968 60.04 217.944 62.856C216.92 65.5867 216.408 68.7013 216.408 72.2C216.408 75.6987 216.92 78.856 217.944 81.672C218.968 84.4027 220.376 86.7493 222.168 88.712C224.045 90.5893 226.179 92.04 228.568 93.064C231.043 94.088 233.688 94.6 236.504 94.6ZM297.936 117V27.4H343.376C354.469 27.4 363.045 29.448 369.104 33.544C375.248 37.64 378.32 43.4 378.32 50.824C378.32 58.0773 375.504 63.8373 369.872 68.104C364.24 72.2853 356.645 74.376 347.088 74.376L349.648 67.464C359.803 67.464 367.781 69.4693 373.584 73.48C379.387 77.4907 382.288 83.336 382.288 91.016C382.288 98.952 379.131 105.267 372.816 109.96C366.501 114.653 357.499 117 345.808 117H297.936ZM327.632 95.88H344.4C346.875 95.88 348.709 95.2827 349.904 94.088C351.184 92.808 351.824 91.016 351.824 88.712C351.824 86.408 351.184 84.7013 349.904 83.592C348.709 82.3973 346.875 81.8 344.4 81.8H327.632V95.88ZM327.632 61.832H340.432C342.992 61.832 344.869 61.2773 346.064 60.168C347.259 59.0587 347.856 57.4373 347.856 55.304C347.856 53.0853 347.259 51.4213 346.064 50.312C344.869 49.1173 342.992 48.52 340.432 48.52H327.632V61.832ZM441.317 54.92C452.24 54.92 460.773 57.3947 466.917 62.344C473.146 67.208 476.261 74.5893 476.261 84.488C476.261 95.1547 472.762 103.261 465.765 108.808C458.768 114.269 449.338 117 437.477 117H393.061V27.4H422.757V54.92H441.317ZM435.429 95.88C438.416 95.88 440.89 94.9413 442.853 93.064C444.901 91.1013 445.925 88.4133 445.925 85C445.925 81.5867 444.901 79.24 442.853 77.96C440.89 76.68 438.416 76.04 435.429 76.04H422.757V95.88H435.429ZM484.453 117V27.4H514.149V117H484.453ZM530.061 117V27.4H559.757V73.992L590.605 27.4H619.021V117H589.325V70.536L558.605 117H530.061ZM574.477 22.28C564.322 22.28 557.112 20.4027 552.845 16.648C548.664 12.808 546.573 7.34666 546.573 0.263992H566.669C566.669 3.07999 567.224 5.17066 568.333 6.536C569.528 7.81599 571.576 8.45599 574.477 8.45599C577.464 8.45599 579.554 7.81599 580.749 6.536C581.944 5.17066 582.541 3.07999 582.541 0.263992H602.637C602.637 7.34666 600.461 12.808 596.109 16.648C591.842 20.4027 584.632 22.28 574.477 22.28ZM732.319 104.2V50.824H711.711L711.455 57.224C711.284 61.9173 710.986 66.312 710.559 70.408C710.132 74.504 709.535 78.2587 708.767 81.672C708.084 85.0853 707.188 88.1147 706.079 90.76C704.97 93.32 703.604 95.4533 701.983 97.16L670.111 93.576C672.927 93.576 675.231 92.6373 677.023 90.76C678.9 88.7973 680.394 86.1093 681.503 82.696C682.612 79.1973 683.423 75.1013 683.935 70.408C684.532 65.6293 684.959 60.3813 685.215 54.664L686.239 27.4H762.015V104.2H732.319ZM667.551 134.536V93.576H773.791V134.536H746.143V117H695.199V134.536H667.551ZM783.936 117V27.4H829.376C840.469 27.4 849.045 29.448 855.104 33.544C861.248 37.64 864.32 43.4 864.32 50.824C864.32 58.0773 861.504 63.8373 855.872 68.104C850.24 72.2853 842.645 74.376 833.088 74.376L835.648 67.464C845.803 67.464 853.781 69.4693 859.584 73.48C865.387 77.4907 868.288 83.336 868.288 91.016C868.288 98.952 865.131 105.267 858.816 109.96C852.501 114.653 843.499 117 831.808 117H783.936ZM813.632 95.88H830.4C832.875 95.88 834.709 95.2827 835.904 94.088C837.184 92.808 837.824 91.016 837.824 88.712C837.824 86.408 837.184 84.7013 835.904 83.592C834.709 82.3973 832.875 81.8 830.4 81.8H813.632V95.88ZM813.632 61.832H826.432C828.992 61.832 830.869 61.2773 832.064 60.168C833.259 59.0587 833.856 57.4373 833.856 55.304C833.856 53.0853 833.259 51.4213 832.064 50.312C830.869 49.1173 828.992 48.52 826.432 48.52H813.632V61.832ZM924.629 119.048C917.376 119.048 910.634 117.896 904.405 115.592C898.261 113.288 892.928 110.045 888.405 105.864C883.882 101.597 880.341 96.6053 877.781 90.888C875.306 85.1707 874.069 78.9413 874.069 72.2C874.069 65.3733 875.306 59.144 877.781 53.512C880.341 47.7947 883.882 42.8453 888.405 38.664C892.928 34.3973 898.261 31.112 904.405 28.808C910.634 26.504 917.376 25.352 924.629 25.352C931.968 25.352 938.709 26.504 944.853 28.808C950.997 31.112 956.33 34.3973 960.853 38.664C965.376 42.8453 968.874 47.7947 971.349 53.512C973.909 59.144 975.189 65.3733 975.189 72.2C975.189 78.9413 973.909 85.1707 971.349 90.888C968.874 96.6053 965.376 101.597 960.853 105.864C956.33 110.045 950.997 113.288 944.853 115.592C938.709 117.896 931.968 119.048 924.629 119.048ZM924.629 94.6C927.445 94.6 930.048 94.088 932.437 93.064C934.912 92.04 937.045 90.5893 938.837 88.712C940.714 86.7493 942.165 84.4027 943.189 81.672C944.213 78.856 944.725 75.6987 944.725 72.2C944.725 68.7013 944.213 65.5867 943.189 62.856C942.165 60.04 940.714 57.6933 938.837 55.816C937.045 53.8533 934.912 52.36 932.437 51.336C930.048 50.312 927.445 49.8 924.629 49.8C921.813 49.8 919.168 50.312 916.693 51.336C914.304 52.36 912.17 53.8533 910.293 55.816C908.501 57.6933 907.093 60.04 906.069 62.856C905.045 65.5867 904.533 68.7013 904.533 72.2C904.533 75.6987 905.045 78.856 906.069 81.672C907.093 84.4027 908.501 86.7493 910.293 88.712C912.17 90.5893 914.304 92.04 916.693 93.064C919.168 94.088 921.813 94.6 924.629 94.6ZM986.061 117V27.4H1029.2C1037.56 27.4 1044.77 28.7653 1050.83 31.496C1056.97 34.2267 1061.71 38.152 1065.04 43.272C1068.37 48.3067 1070.03 54.28 1070.03 61.192C1070.03 68.104 1068.37 74.0773 1065.04 79.112C1061.71 84.1467 1056.97 88.072 1050.83 90.888C1044.77 93.6187 1037.56 94.984 1029.2 94.984H1002.83L1016.27 82.056V117H986.061ZM1016.27 85.384L1002.83 71.688H1027.28C1031.46 71.688 1034.53 70.7493 1036.49 68.872C1038.54 66.9947 1039.57 64.4347 1039.57 61.192C1039.57 57.9493 1038.54 55.3893 1036.49 53.512C1034.53 51.6347 1031.46 50.696 1027.28 50.696H1002.83L1016.27 37V85.384Z" fill="#F0FDF4"/>
</svg>
