<svg width="803" height="102" viewBox="0 0 803 102" fill="none" xmlns="http://www.w3.org/2000/svg">
<path d="M21.688 45.76H51.64V62.08H21.688V45.76ZM23.224 70.912H56.824V88H0.952V20.8H55.576V37.888H23.224V70.912ZM71.0065 89.248C69.5985 89.248 68.0945 89.152 66.4945 88.96C64.8945 88.768 63.1985 88.448 61.4065 88L62.5585 69.856C63.4545 70.048 64.2865 70.144 65.0545 70.144C67.5505 70.144 69.4065 69.12 70.6225 67.072C71.8385 65.024 72.6705 62.272 73.1185 58.816C73.5665 55.296 73.8545 51.36 73.9825 47.008L74.8465 20.8H131.583V88H109.311V33.568L114.207 38.368H89.7265L94.1425 33.28L93.7585 46.144C93.5665 52.608 93.1185 58.496 92.4145 63.808C91.7745 69.056 90.6545 73.6 89.0545 77.44C87.4545 81.216 85.1825 84.128 82.2385 86.176C79.3585 88.224 75.6145 89.248 71.0065 89.248ZM177.628 89.536C172.188 89.536 167.132 88.672 162.46 86.944C157.852 85.216 153.852 82.784 150.46 79.648C147.068 76.448 144.412 72.704 142.492 68.416C140.636 64.128 139.708 59.456 139.708 54.4C139.708 49.28 140.636 44.608 142.492 40.384C144.412 36.096 147.068 32.384 150.46 29.248C153.852 26.048 157.852 23.584 162.46 21.856C167.132 20.128 172.188 19.264 177.628 19.264C183.132 19.264 188.188 20.128 192.796 21.856C197.404 23.584 201.404 26.048 204.796 29.248C208.188 32.384 210.812 36.096 212.668 40.384C214.588 44.608 215.548 49.28 215.548 54.4C215.548 59.456 214.588 64.128 212.668 68.416C210.812 72.704 208.188 76.448 204.796 79.648C201.404 82.784 197.404 85.216 192.796 86.944C188.188 88.672 183.132 89.536 177.628 89.536ZM177.628 71.2C179.74 71.2 181.692 70.816 183.484 70.048C185.34 69.28 186.94 68.192 188.284 66.784C189.692 65.312 190.78 63.552 191.548 61.504C192.316 59.392 192.7 57.024 192.7 54.4C192.7 51.776 192.316 49.44 191.548 47.392C190.78 45.28 189.692 43.52 188.284 42.112C186.94 40.64 185.34 39.52 183.484 38.752C181.692 37.984 179.74 37.6 177.628 37.6C175.516 37.6 173.532 37.984 171.676 38.752C169.884 39.52 168.284 40.64 166.876 42.112C165.532 43.52 164.476 45.28 163.708 47.392C162.94 49.44 162.556 51.776 162.556 54.4C162.556 57.024 162.94 59.392 163.708 61.504C164.476 63.552 165.532 65.312 166.876 66.784C168.284 68.192 169.884 69.28 171.676 70.048C173.532 70.816 175.516 71.2 177.628 71.2ZM223.702 88V20.8H257.782C266.102 20.8 272.534 22.336 277.078 25.408C281.686 28.48 283.99 32.8 283.99 38.368C283.99 43.808 281.878 48.128 277.654 51.328C273.43 54.464 267.734 56.032 260.566 56.032L262.486 50.848C270.102 50.848 276.086 52.352 280.438 55.36C284.79 58.368 286.966 62.752 286.966 68.512C286.966 74.464 284.598 79.2 279.862 82.72C275.126 86.24 268.374 88 259.606 88H223.702ZM245.974 72.16H258.55C260.406 72.16 261.782 71.712 262.678 70.816C263.638 69.856 264.118 68.512 264.118 66.784C264.118 65.056 263.638 63.776 262.678 62.944C261.782 62.048 260.406 61.6 258.55 61.6H245.974V72.16ZM245.974 46.624H255.574C257.494 46.624 258.902 46.208 259.798 45.376C260.694 44.544 261.142 43.328 261.142 41.728C261.142 40.064 260.694 38.816 259.798 37.984C258.902 37.088 257.494 36.64 255.574 36.64H245.974V46.624ZM331.238 41.44C339.43 41.44 345.83 43.296 350.438 47.008C355.11 50.656 357.446 56.192 357.446 63.616C357.446 71.616 354.822 77.696 349.574 81.856C344.326 85.952 337.254 88 328.358 88H295.046V20.8H317.318V41.44H331.238ZM326.822 72.16C329.062 72.16 330.918 71.456 332.39 70.048C333.926 68.576 334.694 66.56 334.694 64C334.694 61.44 333.926 59.68 332.39 58.72C330.918 57.76 329.062 57.28 326.822 57.28H317.318V72.16H326.822ZM363.59 88V20.8H385.862V88H363.59ZM397.796 88V20.8H420.068V55.744L443.204 20.8H464.516V88H442.244V53.152L419.204 88H397.796ZM431.108 16.96C423.492 16.96 418.084 15.552 414.884 12.736C411.748 9.856 410.18 5.75999 410.18 0.447994H425.252C425.252 2.55999 425.668 4.12799 426.5 5.152C427.396 6.112 428.932 6.592 431.108 6.592C433.348 6.592 434.916 6.112 435.812 5.152C436.708 4.12799 437.156 2.55999 437.156 0.447994H452.228C452.228 5.75999 450.596 9.856 447.332 12.736C444.132 15.552 438.724 16.96 431.108 16.96ZM549.489 78.4V38.368H534.033L533.841 43.168C533.713 46.688 533.489 49.984 533.169 53.056C532.849 56.128 532.401 58.944 531.825 61.504C531.313 64.064 530.641 66.336 529.809 68.32C528.977 70.24 527.953 71.84 526.737 73.12L502.833 70.432C504.945 70.432 506.673 69.728 508.017 68.32C509.425 66.848 510.545 64.832 511.377 62.272C512.209 59.648 512.817 56.576 513.201 53.056C513.649 49.472 513.969 45.536 514.161 41.248L514.929 20.8H571.761V78.4H549.489ZM500.913 101.152V70.432H580.593V101.152H559.857V88H521.649V101.152H500.913ZM588.202 88V20.8H622.282C630.602 20.8 637.034 22.336 641.578 25.408C646.186 28.48 648.49 32.8 648.49 38.368C648.49 43.808 646.378 48.128 642.154 51.328C637.93 54.464 632.234 56.032 625.066 56.032L626.986 50.848C634.602 50.848 640.586 52.352 644.938 55.36C649.29 58.368 651.466 62.752 651.466 68.512C651.466 74.464 649.098 79.2 644.362 82.72C639.626 86.24 632.874 88 624.106 88H588.202ZM610.474 72.16H623.05C624.906 72.16 626.282 71.712 627.178 70.816C628.138 69.856 628.618 68.512 628.618 66.784C628.618 65.056 628.138 63.776 627.178 62.944C626.282 62.048 624.906 61.6 623.05 61.6H610.474V72.16ZM610.474 46.624H620.074C621.994 46.624 623.402 46.208 624.298 45.376C625.194 44.544 625.642 43.328 625.642 41.728C625.642 40.064 625.194 38.816 624.298 37.984C623.402 37.088 621.994 36.64 620.074 36.64H610.474V46.624ZM693.722 89.536C688.282 89.536 683.226 88.672 678.554 86.944C673.946 85.216 669.946 82.784 666.554 79.648C663.162 76.448 660.506 72.704 658.586 68.416C656.73 64.128 655.802 59.456 655.802 54.4C655.802 49.28 656.73 44.608 658.586 40.384C660.506 36.096 663.162 32.384 666.554 29.248C669.946 26.048 673.946 23.584 678.554 21.856C683.226 20.128 688.282 19.264 693.722 19.264C699.226 19.264 704.282 20.128 708.89 21.856C713.498 23.584 717.498 26.048 720.89 29.248C724.282 32.384 726.906 36.096 728.762 40.384C730.682 44.608 731.642 49.28 731.642 54.4C731.642 59.456 730.682 64.128 728.762 68.416C726.906 72.704 724.282 76.448 720.89 79.648C717.498 82.784 713.498 85.216 708.89 86.944C704.282 88.672 699.226 89.536 693.722 89.536ZM693.722 71.2C695.834 71.2 697.786 70.816 699.578 70.048C701.434 69.28 703.034 68.192 704.378 66.784C705.786 65.312 706.874 63.552 707.642 61.504C708.41 59.392 708.794 57.024 708.794 54.4C708.794 51.776 708.41 49.44 707.642 47.392C706.874 45.28 705.786 43.52 704.378 42.112C703.034 40.64 701.434 39.52 699.578 38.752C697.786 37.984 695.834 37.6 693.722 37.6C691.61 37.6 689.626 37.984 687.77 38.752C685.978 39.52 684.378 40.64 682.97 42.112C681.626 43.52 680.57 45.28 679.802 47.392C679.034 49.44 678.65 51.776 678.65 54.4C678.65 57.024 679.034 59.392 679.802 61.504C680.57 63.552 681.626 65.312 682.97 66.784C684.378 68.192 685.978 69.28 687.77 70.048C689.626 70.816 691.61 71.2 693.722 71.2ZM739.796 88V20.8H772.148C778.42 20.8 783.828 21.824 788.372 23.872C792.98 25.92 796.532 28.864 799.028 32.704C801.524 36.48 802.772 40.96 802.772 46.144C802.772 51.328 801.524 55.808 799.028 59.584C796.532 63.36 792.98 66.304 788.372 68.416C783.828 70.464 778.42 71.488 772.148 71.488H752.372L762.452 61.792V88H739.796ZM762.452 64.288L752.372 54.016H770.708C773.844 54.016 776.148 53.312 777.62 51.904C779.156 50.496 779.924 48.576 779.924 46.144C779.924 43.712 779.156 41.792 777.62 40.384C776.148 38.976 773.844 38.272 770.708 38.272H752.372L762.452 28V64.288Z" fill="#F0FDF4"/>
</svg>
