<svg width="536" height="68" viewBox="0 0 536 68" fill="none" xmlns="http://www.w3.org/2000/svg">
<path d="M14.792 30.84H34.76V41.72H14.792V30.84ZM15.816 47.608H38.216V59H0.968V14.2H37.384V25.592H15.816V47.608ZM47.671 59.832C46.7323 59.832 45.7297 59.768 44.663 59.64C43.5963 59.512 42.4657 59.2987 41.271 59L42.039 46.904C42.6363 47.032 43.191 47.096 43.703 47.096C45.367 47.096 46.6043 46.4133 47.415 45.048C48.2257 43.6827 48.7803 41.848 49.079 39.544C49.3777 37.1973 49.5697 34.5733 49.655 31.672L50.231 14.2H88.055V59H73.207V22.712L76.471 25.912H60.151L63.095 22.52L62.839 31.096C62.711 35.4053 62.4123 39.3307 61.943 42.872C61.5163 46.3707 60.7697 49.4 59.703 51.96C58.6363 54.4773 57.1217 56.4187 55.159 57.784C53.239 59.1493 50.743 59.832 47.671 59.832ZM118.752 60.024C115.125 60.024 111.755 59.448 108.64 58.296C105.568 57.144 102.901 55.5227 100.64 53.432C98.3787 51.2987 96.608 48.8027 95.328 45.944C94.0907 43.0853 93.472 39.9707 93.472 36.6C93.472 33.1867 94.0907 30.072 95.328 27.256C96.608 24.3973 98.3787 21.9227 100.64 19.832C102.901 17.6987 105.568 16.056 108.64 14.904C111.755 13.752 115.125 13.176 118.752 13.176C122.421 13.176 125.792 13.752 128.864 14.904C131.936 16.056 134.603 17.6987 136.864 19.832C139.125 21.9227 140.875 24.3973 142.112 27.256C143.392 30.072 144.032 33.1867 144.032 36.6C144.032 39.9707 143.392 43.0853 142.112 45.944C140.875 48.8027 139.125 51.2987 136.864 53.432C134.603 55.5227 131.936 57.144 128.864 58.296C125.792 59.448 122.421 60.024 118.752 60.024ZM118.752 47.8C120.16 47.8 121.461 47.544 122.656 47.032C123.893 46.52 124.96 45.7947 125.856 44.856C126.795 43.8747 127.52 42.7013 128.032 41.336C128.544 39.928 128.8 38.3493 128.8 36.6C128.8 34.8507 128.544 33.2933 128.032 31.928C127.52 30.52 126.795 29.3467 125.856 28.408C124.96 27.4267 123.893 26.68 122.656 26.168C121.461 25.656 120.16 25.4 118.752 25.4C117.344 25.4 116.021 25.656 114.784 26.168C113.589 26.68 112.523 27.4267 111.584 28.408C110.688 29.3467 109.984 30.52 109.472 31.928C108.96 33.2933 108.704 34.8507 108.704 36.6C108.704 38.3493 108.96 39.928 109.472 41.336C109.984 42.7013 110.688 43.8747 111.584 44.856C112.523 45.7947 113.589 46.52 114.784 47.032C116.021 47.544 117.344 47.8 118.752 47.8ZM149.468 59V14.2H172.188C177.735 14.2 182.023 15.224 185.052 17.272C188.124 19.32 189.66 22.2 189.66 25.912C189.66 29.5387 188.252 32.4187 185.436 34.552C182.62 36.6427 178.823 37.688 174.044 37.688L175.324 34.232C180.401 34.232 184.391 35.2347 187.292 37.24C190.193 39.2453 191.644 42.168 191.644 46.008C191.644 49.976 190.065 53.1333 186.908 55.48C183.751 57.8267 179.249 59 173.404 59H149.468ZM164.316 48.44H172.7C173.937 48.44 174.855 48.1413 175.452 47.544C176.092 46.904 176.412 46.008 176.412 44.856C176.412 43.704 176.092 42.8507 175.452 42.296C174.855 41.6987 173.937 41.4 172.7 41.4H164.316V48.44ZM164.316 31.416H170.716C171.996 31.416 172.935 31.1387 173.532 30.584C174.129 30.0293 174.428 29.2187 174.428 28.152C174.428 27.0427 174.129 26.2107 173.532 25.656C172.935 25.0587 171.996 24.76 170.716 24.76H164.316V31.416ZM221.159 27.96C226.62 27.96 230.887 29.1973 233.959 31.672C237.073 34.104 238.631 37.7947 238.631 42.744C238.631 48.0773 236.881 52.1307 233.383 54.904C229.884 57.6347 225.169 59 219.239 59H197.031V14.2H211.878V27.96H221.159ZM218.215 48.44C219.708 48.44 220.945 47.9707 221.927 47.032C222.951 46.0507 223.463 44.7067 223.463 43C223.463 41.2933 222.951 40.12 221.927 39.48C220.945 38.84 219.708 38.52 218.215 38.52H211.878V48.44H218.215ZM242.727 59V14.2H257.575V59H242.727ZM265.531 59V14.2H280.378V37.496L295.803 14.2H310.011V59H295.163V35.768L279.803 59H265.531ZM287.739 11.64C282.661 11.64 279.056 10.7013 276.923 8.824C274.832 6.904 273.787 4.17333 273.787 0.631996H283.835C283.835 2.04 284.112 3.08533 284.667 3.768C285.264 4.408 286.288 4.728 287.739 4.728C289.232 4.728 290.277 4.408 290.875 3.768C291.472 3.08533 291.771 2.04 291.771 0.631996H301.819C301.819 4.17333 300.731 6.904 298.555 8.824C296.421 10.7013 292.816 11.64 287.739 11.64ZM366.66 52.6V25.912H356.356L356.228 29.112C356.142 31.4587 355.993 33.656 355.78 35.704C355.566 37.752 355.268 39.6293 354.884 41.336C354.542 43.0427 354.094 44.5573 353.54 45.88C352.985 47.16 352.302 48.2267 351.492 49.08L335.556 47.288C336.964 47.288 338.116 46.8187 339.012 45.88C339.95 44.8987 340.697 43.5547 341.252 41.848C341.806 40.0987 342.212 38.0507 342.468 35.704C342.766 33.3147 342.98 30.6907 343.108 27.832L343.62 14.2H381.508V52.6H366.66ZM334.276 67.768V47.288H387.396V67.768H373.572V59H348.1V67.768H334.276ZM392.468 59V14.2H415.188C420.735 14.2 425.023 15.224 428.052 17.272C431.124 19.32 432.66 22.2 432.66 25.912C432.66 29.5387 431.252 32.4187 428.436 34.552C425.62 36.6427 421.823 37.688 417.044 37.688L418.324 34.232C423.401 34.232 427.391 35.2347 430.292 37.24C433.193 39.2453 434.644 42.168 434.644 46.008C434.644 49.976 433.065 53.1333 429.908 55.48C426.751 57.8267 422.249 59 416.404 59H392.468ZM407.316 48.44H415.7C416.937 48.44 417.855 48.1413 418.452 47.544C419.092 46.904 419.412 46.008 419.412 44.856C419.412 43.704 419.092 42.8507 418.452 42.296C417.855 41.6987 416.937 41.4 415.7 41.4H407.316V48.44ZM407.316 31.416H413.716C414.996 31.416 415.935 31.1387 416.532 30.584C417.129 30.0293 417.428 29.2187 417.428 28.152C417.428 27.0427 417.129 26.2107 416.532 25.656C415.935 25.0587 414.996 24.76 413.716 24.76H407.316V31.416ZM462.815 60.024C459.188 60.024 455.817 59.448 452.703 58.296C449.631 57.144 446.964 55.5227 444.703 53.432C442.441 51.2987 440.671 48.8027 439.391 45.944C438.153 43.0853 437.535 39.9707 437.535 36.6C437.535 33.1867 438.153 30.072 439.391 27.256C440.671 24.3973 442.441 21.9227 444.703 19.832C446.964 17.6987 449.631 16.056 452.703 14.904C455.817 13.752 459.188 13.176 462.815 13.176C466.484 13.176 469.855 13.752 472.927 14.904C475.999 16.056 478.665 17.6987 480.927 19.832C483.188 21.9227 484.937 24.3973 486.175 27.256C487.455 30.072 488.095 33.1867 488.095 36.6C488.095 39.9707 487.455 43.0853 486.175 45.944C484.937 48.8027 483.188 51.2987 480.927 53.432C478.665 55.5227 475.999 57.144 472.927 58.296C469.855 59.448 466.484 60.024 462.815 60.024ZM462.815 47.8C464.223 47.8 465.524 47.544 466.719 47.032C467.956 46.52 469.023 45.7947 469.919 44.856C470.857 43.8747 471.583 42.7013 472.095 41.336C472.607 39.928 472.863 38.3493 472.863 36.6C472.863 34.8507 472.607 33.2933 472.095 31.928C471.583 30.52 470.857 29.3467 469.919 28.408C469.023 27.4267 467.956 26.68 466.719 26.168C465.524 25.656 464.223 25.4 462.815 25.4C461.407 25.4 460.084 25.656 458.847 26.168C457.652 26.68 456.585 27.4267 455.647 28.408C454.751 29.3467 454.047 30.52 453.535 31.928C453.023 33.2933 452.767 34.8507 452.767 36.6C452.767 38.3493 453.023 39.928 453.535 41.336C454.047 42.7013 454.751 43.8747 455.647 44.856C456.585 45.7947 457.652 46.52 458.847 47.032C460.084 47.544 461.407 47.8 462.815 47.8ZM493.531 59V14.2H515.099C519.28 14.2 522.885 14.8827 525.915 16.248C528.987 17.6133 531.355 19.576 533.019 22.136C534.683 24.6533 535.515 27.64 535.515 31.096C535.515 34.552 534.683 37.5387 533.019 40.056C531.355 42.5733 528.987 44.536 525.915 45.944C522.885 47.3093 519.28 47.992 515.099 47.992H501.915L508.635 41.528V59H493.531ZM508.635 43.192L501.915 36.344H514.139C516.229 36.344 517.765 35.8747 518.747 34.936C519.771 33.9973 520.283 32.7173 520.283 31.096C520.283 29.4747 519.771 28.1947 518.747 27.256C517.765 26.3173 516.229 25.848 514.139 25.848H501.915L508.635 19V43.192Z" fill="#F0FDF4"/>
</svg>
